<?xml version="1.0" encoding="UTF-8"?>
<svg id="Layer_1" data-name="Layer 1" xmlns="http://www.w3.org/2000/svg" viewBox="0 0 608.32 115.92">
  <defs>
    <style>
      .cls-1, .cls-2 {
        fill: #231f20;
      }

      .cls-2 {
        fill-rule: evenodd;
      }
    </style>
  </defs>
  <g>
    <path class="cls-2" d="M193.28,47.06c0-.22-.46-.12-.49-.29-.36-1.53-.16-1.59-.39-1.85-.17-.2-.52-.17-.62-.36-.23-.33-.33-1.53-.53-1.82-.19-.3-.35-.75-.52-1.01-.59-.79-.55-.79-.91-1.14-.16-.2-.13-.49-.26-.65-.23-.29-.63-.39-.82-.68-.71-1.01-.71-.75-1.63-1.63-.78-.78-1.88-1.04-2.7-1.72-.16-.17-.16-.43-.36-.53q-.91-.33-1.4-.52c-.78-.27-1.59-.36-2.38-.46-.98-.09-1.86.04-2.81,0-1.69,0-2.4-.25-4.07-.09h-.03c-.75.07-1.62.29-2.37.39-.78.13-1.37.39-2.12.29-.39-.06-.61-.49-.94-.49-2.99,0-11.2-.13-14.19-.1-1.34.04-2.64-.12-3.94-.06-.23,0-.49,0-.72.06v2.02c.2.1.35.2.49.36.26.36.29.88.55,1.24.62.84.75,1.72,1,1.95.27.26.29.78.59,1.01.55.42.91.65,1.53.88.33.1.89.03,1.21,0,.42-.1.78-.16,1.14-.23,1.75-.19,4.13.04,5.96.04,1.24-.04,2.5-.2,3.95-.23.12-.03.26.07.35.14.1.12.2.29.23.45.1,1.23,1.47,1.07,1.66,2.25.03.26.33.36.36.55.05.23.29,1.34.29,1.47,0,.26.29.91.26,1.14-.09.42.03,1.3.23,1.72.16.33-.03.88-.1,1.17-.19.82-.58,1.11-.78,1.99-.13.42-.33.78-.55,1.11-.75,1.01-1.53,1.96-2.44,2.77-.72.59-1.59,1.04-2.41,1.4-.42.16-.88.1-1.24.23-.45.16-.82.49-1.21.59-1.17.23-2.35.23-3.48.52-.46.1-.94.26-1.24.59-1,1.11-1.27,1.24-1.46,1.79-.2.52-.2,1.04-.07,1.53.1.52.03.52.36,1.57.16.42.62,1.01,1.4,1.95.1.1.29.03.36.16.39.72.39.62.71.91.17.13.43.03.59.16.26.2.36.52.58.72,1.89,1.73,2.18,2.05,2.48,2.24.52.36.55.39,1.92.76.56.13,1.07-.07,1.57.1,3.35,1.01,3.81,1.43,4.2,1.5,1.13.26,2.31.1,3.42.22.39.04.78.23,1.17.27.3,0,.52.03.71.06.59.06.89.13,1.76,0,.46-.06.72-.52,1.07-.65,1.31-.39,2.44-.2,3.68-.69.98-.36.82-.62,1.69-1.23.65-.46.79-.46,1.69-.81.65-.3,1.86-2.19,2.48-2.41.32-.13.68-.85.97-.71.19.13.36,1.04.36,1.27.03.88-.16,2.77-.16,3.35,0,1.01.07,1.66-.1,2.25-.06.23-.23.07-1.01.62-.16.13-.13.46,0,.59.72.81,1.6,1.46,2.41,2.12.17.1.39.1.52.2.49.48.46,1.27,1.04,1.59.13.07,1.63.59,2.24.46.52-.13.19-.94.23-1.07.19-.56.03-1.24.06-2.18.07-.98.07-2.08.1-2.77.06-.88.03-1.79-.03-2.64,0-.16.03-1.14.03-1.27-.07-1.07-.13-2.02.03-3.06.06-.32-.17-.78-.14-1.27.04-.39.23-1.46.33-1.82.32-1.14-.07-1.7-.13-2.35-.04-.58.16-1.14.16-1.69.03-.89.39-1.44.26-2.28-.06-.69-.06-2.25-.06-2.9,0-1.17.19-2.41.19-3.52s.25-1.46.25-2.54v-.07c0-.23-.03-.52-.06-.88M186.83,49.99c0,.23-.23.49-.26.78-.1,1.01.16,1.27.09,1.79,0,.23-.09.52-.23.75-.2.4-.55.69-.72,1.11-.29.71-.13.48-.59,2.8-.13.75-.65,1.4-1.11,2.02-.29.32-.68,1.36-1.01,1.69-1.66,1.86-1.43,2.22-2.51,3.09-.19.17-.52.2-.74.39-.49.36-.95.91-1.5,1.27-1.11.71-1.67,1.1-2.22,1.36-1.17.55-1.43,1.01-2.67,1.3-.03,0-.09,0-.13.03-1.27.23-2.57.2-3.9.26-.78.03-1.79.19-2.58.09-.16-.03-.3-.23-.49-.26-.94-.23-2.77-.1-3.71-.37-.23-.03-.39-.28-.69-.35-1.79-.46-.69-.65-1.46-.72-.33-.03-.72-.16-.94-.42-.13-.16-.13-.43,0-.62.29-.46.32-.56,2.12-1.21.55-.19,1.18.03,1.72-.03.42-.04.85-.1,1.26-.26.3-.1.56-.42.89-.56.55-.23,1.2-.29,1.81-.52.42-.17.85-.3,1.21-.62.35-.29.52-.72.97-1.24.33-.39.3-.42.78-.82,1.07-.81.95-.39,1.76-1.36.49-.59.42-1.47.56-2.21.06-.36-.06-.75,0-1.14.03-.16.26-.33.26-.56.1-.88,0-1.78-.06-2.67-.04-.29-.2-.52-.2-.82-.19-4.66.55-2.31.23-5.17-.06-.46-.45-2.15-.52-2.61-.1-.62-.2-1.99.1-2.57.16-.33.61-.4,1-.53t.06-.03c.69-.22,1.4.39,2.12.16.39-.13.75-.45,1.18-.55.91-.23-.14-.36,3-.16.64.03.58.29,1.26.36.98.06,1.99-.07,3,.06.32.03.62.16,1,.29.39.13,1.07-.03,1.5.13,1.07.42.06,1.27.35,1.53.33.3.46.82.46,1.27.13,2.21-.03-.03-.49,5.8"/>
    <path class="cls-2" d="M149.91,60.94c.06-.88-.2-1.57-.36-2.41-.03-.36-.1-.75-.13-1.08-.16-1.13-.16-2.31-.06-3.48.06-.55.35-1.01.39-1.53.14-1.95.2-3.87.07-5.79-.04-.33-.04-.29-.3-1.72-.03-.2-.26-.27-.42-.39-.03-.04-.07-.07-.07-.1-.52-1.3-.32-1.33-.42-1.72-.2-.59-.65-1.01-.91-1.53-.13-.33-.13-.71-.29-.98-.62-.88-.62-.85-1.18-1.66-.22-.32-.62-.49-.84-.82-.24-.33-.14-.74-.4-.97-.26-.23-.71-.07-.97-.26-.42-.3-.59-.81-.94-1.17-.52-.45-.91-1.2-1.56-1.27-3.95-.36-3.49.32-9.32.13-.22,0-.16-.49-.35-.52-1.43-.1-2.86.2-4.29.13-.13,0-.07-.26-.82-.26-1.08,0-2.14.32-3.25.42-1.24.06-2.48.16-3.68.09-.43,0-.85-.26-1.27-.26-1.2-.07-2.34-.1-3.52,0-3.87.29-3.87.32-4.98.62-.2.03-.42.13-.48.29-.07.19-.04.39.06.52.16.29.52.48.68.81.36.65.46,1.4.82,2.02.1.13.32.06.42.13.26.23.48.45.69.72.65.81.88,1.24,1.43,1.6.49.29,1.11.13,1.59.26.23.07.39.29.59.29,1.13.13,1.13.2,1.3.2.82.09.07-.4,4.53-.98.75-.06.72.13,1.14.16,1.43.16,1.69-.36,3.09-.23.3.03.59.06.78.26.43.42.62.32.92.71.3.4,1.07.32,1.53,1.23.19.46,1.4.98,1.14,2.06-.2.88,0,1.85-.13,2.7-.03.23-.29.33-.33.52-.06.33-.39.75-.46,1.01-.1.23-.04.23-.33.75-.26.55-.22.55-.91,1.56-.32.46-.84.75-1.14.98-.39.33-.23.45-.88,1.3-.32.42-.36.39-1.11,1.11-.91.88-1.89,1.6-2.83,2.34-.16.13-.42.03-.58.16-.39.27-.78.69-1.21.95-.55.36-1.24.59-1.83.82-.26.09-.52.16-.81.16-1.14,0-2.31-.13-3.45-.04-.2,0-.3.07-.49.62-.1.29-.07.36,1.5,2.77.19.32.59.42.82.72.17.19.12.52.32.68.81.78,1.76,1.43,2.67,2.05.36.26.78.35,1.14.59.13.06.09.25.16.29.22.19.52.23.65.39.13.13.03.33.13.39.35.39.75.75,1.18,1.04,1.69,1.27,2.47,1.86,3.09,2.38.07.06-.1.26,0,.35.13.17.39.17.49.33.2.29.68.58,1.37,1.36.17.2.2.49.36.65.23.26.52.42.72.68.13.2.06.42.16.56.27.32.65.52.88.81.26.32.36.72.62.98.75.75,1.95,1.47,2.31,1.76.29.26.29.75.55,1,.39.39.85.65,1.24.95.29.16.62.39.94.42.3,0,.62-.03.81-.19.17-.17.14-.49.04-.72-.23-.49-.36-.39-.69-.68-.42-.4-.29-.5-.62-1.15-.2-.29-.53-.48-.68-.75-.24-.46-1.34-1.89-1.57-2.28-.16-.26-.42-.39-.61-.52-.2-.09-.43-.03-.58-.13-.36-.26-.17-.42-.59-.91-.39-.42-.42-.36-.65-.62-.68-.72-.81-.55-1.04-.75-.36-.33-.3-.88-.62-1.17-.36-.29-.49-.06-1.17-.65-.46-.39-.23-.55-.62-1.14-.19-.26-.65-.13-.84-.29-.66-.58-.78-1.46-1.11-1.66-1.53-1.04-.62-.98-.94-1.63-.26-.49-.29-.85.49-1.4.46-.33.79-.33,1.24-.62.56-.36,1.3-.49,1.89-.82,2.19-1.3,1.08-1.01,2.74-2.21.3-.2.46-.59.72-.78.32-.23.72-.32,1.04-.58.29-.2.98-1.34,1.14-1.63.1-.19.1-.55.19-.74.16-.23.53-.33.68-.55.53-.89,1.05-1.7,1.37-2.61.13-.33-.03-.72,0-1.04.07-.33.3-.59.33-.85.07-.62,0-1.33-.03-1.92,0-.2-.17-.26-.17-.39-.03-1.24-.26-.81-.1-2.41.03-.16-.2-.23-.23-.36-.13-.68.1-1.46-.16-2.09-.3-.74-1.34-1.46-1.6-2.02-.17-.36-1.99-1.43-2.15-1.75-.12-.23-.52-.27-.68-.46-.16-.29-.78-.46-.62-.68.2-.3.91-.1,1.24-.13.91-.1,3.38-.19,4.26-.1.32.07.52.42.78.42,3.19.1,4.14-1.27,7.07-.1,1.3.52.39,1.33.51,2.08.2.88.23,1.8.13,2.67-.26,1.95.09,1.3-.23,4.56-.06.75-.09,1.5,0,2.21.1.52-.09,1.56-.03,2.05.06,1.11-.16,2.21-.13,3.29.04,1.01.04,1.99.16,2.93.04.38.3.65.33.97.1.62-.35,1.08-.49,2.84-.39,4.75.04,6.54-.06,8.56-.04.52-.46.98-.39,1.5.03.36.39.55.49.84.12.29-.04.65.16.85.49.56,1.46,1.11,2.02,1.56.23.2.36.46.59.62.26.2,1.66.23,1.89.46.16.19.39.62.62.65.23.1.42.13.52.13.23,0,.29-.06.35-.19.1-.19.04-.43,0-.62-.03-.12-.23-.23-.23-.36-.09-.61.03-.58.1-1.69.03-.16-.13-.26-.13-.39-.03-.42-.03-.85-.09-1.27-.13-1.66-.45-3.12-.23-4.85.04-.23.13-.62.23-.98.13-.35.23-.71.26-.87.23-.79.23-.82.19-2.35,0-.16-.13-.19-.13-.29-.04-.82.06-.79.23-1.53.06-.36-.06-.72,0-1.04.06-.33.26-.62.26-.91"/>
    <path class="cls-2" d="M107.71,76.95c-.03-.16-.26-.19-.35-.32-.1-.23-.14-.49-.14-.68-.03-1.04.27-1.21.14-1.89-.03-.35-.49-.58-.52-.91-.17-1.96.03-3.91-.13-5.83-.03-.26-.42-.42-.42-.68,0-.23.22-.33.25-.52.13-.79.1-1.63.16-2.38.04-.33.23-.62.23-.91.07-1.14.1-2.31,0-3.42,0-.23-.29-.39-.32-.59-.13-.49.06-1.04-.07-1.47-.03-.23-.42-.3-.39-.48.13-.56.43-.39.78-.91.19-.26.07-.65,0-.91-.07-.3-.35-.49-.39-.75-.09-1.66-.19-2.08,0-4.11.1-1.04.46-1.98.56-2.96.07-.62.1-1.24,0-1.86-.03-.16-.26-.19-.26-.32-.2-1.82-.33-1.82-.39-3.62-.03-.26.42-.29.49-.49.26-.65.75-.71.29-3.02-.26-1.21-1.88-1.63-2.63-2.44-.72-.72-.63-.81-1.5-1.24-1.17-.59-.85-.13-2.28.04-6.9.75-4.33.16-5.54.19-2.08.1-4.13-.13-6.18-.03-.26.03-.55.1-.68.26-.13.16-.1.42,0,.59.52.91,1.07,1.4,1.23,1.69.17.29.1.58.12.85.43.49.89.94,1.31,1.37.1.2.2.39.26.58.42.35.85.68,1.27,1,.98.17.98.2,2.02.17.32,0,.69-.23.95-.49.16-.16.52,0,.71,0,2.19-.06,4.11-.52,4.23-.13.29.91.06,1.37-.16,4.17-.04.49-.36.43-.3.75.07.13-.03,2.25,0,3.55.09,2.34.23,1.69.09,2.18-.06.22,0,.45-.81.85-.45.23-1.4,1.17-2.86,1.04-1.7-.13-1.79.32-4.01.16-.42-.03-.85.1-1.14-.16-.39-.43-.33-.48-.78-.81-.79-.1-1.53-.13-2.27-.2-.19-.1-.37-.19-.49-.26-.13-.26-.26-.49-.32-.75q.13-.56.13-3.59c-.1-.16-.16-.32-.23-.46-.1-.62-.13-1.23-.17-1.85-.22-.65-.42-1.21-.61-1.79v-.66c-.13-.26-.19-.45-.3-.65v-1.3c-.13-.17-.36-.23-.45-.39-.52-.85-1.14-2.15-1.66-3.03-.09-.16-.3-.13-.36-.26-.22-.39-.03-.52-1.33-2.12-.23-.32-.65-.36-.98-.42q-1.17-.17-3.91-.13c-.39.03-.74.23-1.14.23h-.88c-1.83,0-3.75.03-5.5.06-1.4.04-2.74-.13-4.17-.16-.17,0-.3.06-.39.16-.26.26-.88.39-1.17.55-.46.23-.75.07-1.23.23-.33.07-.39.07-.88.78-.26.42-.36.91-.42,1.36-.03.4.46.69.88,1.7.1.23.1.46.12.68.11.13.23.26.36.36.29.72.55,1.37.85,2.02q.23.26.85.62c.09.29.23.55.29.81.29.23.52.49.75.72.06.2.13.33.16.49.26.29.49.55.72.78.13.26.19.56.29.78.23.26.45.49.65.75.29.2.62.39.87.59.13.3.2.56.3.85.42.26.84.55,1.23.81.33.07.69.17,1.05.23.33.19.68.36,1.01.52.23.23.45.46.65.65.39.2.78.36,1.11.52.55.13,1.07.26,1.63.39.19.03.39.07.59.14.33.19.62.39.94.58.52.07,1.07.13,1.59.19.1.16.16.26.27.39-.16.22-.33.46-.46.64q-.56.1-1.4.63c-.52.09-1.04.23-1.53.32-.13.03-.23.06-.36.06-.75.36-1.53.72-2.28,1.01-.22.2-.46.36-.65.49q-.91.26-3.36,1.3c-.13.16-.19.32-.29.42-.26.13-.52.2-.82.26q-.97.62-1.73,1.24c-.13.2-.22.39-.32.58-.2.1-.33.23-.49.36-.16.36-.26.75-.39,1.1v.65c.19.36.36.72.52,1.04v2.24c.06.33.13.59.16.84.2.36.39.72.59,1.08.2.13.36.29.52.42.23.39.46.72.65,1.08.42.32.85.59,1.27.88.1.23.07.49.17.69.2.42.13.23,1.3,1.33.52.49,1.01,1.27,1.46,1.51.61.33,1.04.58,1.73.64.75.1,1.56.36,2.31.52.22.04.46.1.71.1.33.06.59.38.91.38,2.48.14,2.48-.1,4.89-.12.2,0,.39.19.45.36.36.74.49,1.53.82,2.25.16.39.49.68.62,1.04.25.75.29,1.5.55,2.18.03.13.69,1.44.88,1.95.17.36.03.82.19,1.14.16.39.59.61.81.94.13.17.06.43.17.59.09.19.33.26.39.42.13.29.06.62.19.84.03.13.16.13.26.13.16,0,.36,0,.42-.06.09-.13.03-.32,0-.49-.49-2.08-.42-2.11-1.04-3.52-.1-.19-.03-.19-.23-.94-.1-.26-.43-.33-.53-.59-.13-.36-.06-.2-.16-.53,0-.1-.16-.1-.16-.16-.1-.59.03-.62-.32-1.4-.1-.2-.32-.26-.39-.42-.29-.72-.36-1.5-.61-2.21-.07-.16-.27-.23-.27-.39-.06-.48-.19-.62.27-1.14.48-.55.74-.66,1.46-.84.42-.13.88.1,1.24,0,.55-.16,1.04-.46,1.53-.78.32-.2.45-.58.71-.75.13-.1.29-.06.39-.13.26-.19.59-.36.72-.65.13-.36.1-.78,0-1.11-.23-.65-.59-1.2-.95-1.72-.35-.52-.81-.98-1.1-1.5-.17-.26-.13-.59-.3-.78-.2-.26-.62-.3-.81-.56-.17-.22.03-.55-.06-.78-.1-.2-.13-.2-.98-.42-.26-.06-.56-.06-.82,0-.42.1-.91.13-1.24.39-.55.46-.88,1.11-1.23,1.7-.13.19-.06.49-.2.65-.1.13-.36.1-.46.23-.16.2-.16.49-.33.62-.52.42-1.07.85-1.69,1.04-.92.3-1.92.3-2.87.36-.62.06-1.24.13-1.85.16-.49,0-.95.03-1.43-.03-.59-.03-1.15-.39-1.73-.42-.55-.03-1.11.13-1.63.03-1.73-.33-2.09-1.6-2.15-1.79-.13-.65-.04-.68.26-2.21.1-.13.22-.23.29-.33.4-.1.82-.1,1.14-.26.56-.29.98-.71,1.54-1.01,1.92-1.04,1.92-.97,3.35-1.56.13-.03.26-.07.36-.13,1.43-.55,1.5-.68,3.06-1.63.62-.13,1.24-.26,1.83-.36,1.99-.81,2.83-1.3,4.1-1.83.26-.23.56-.46.82-.65.2-.4.39-.72.55-1.08q.26-.26.85-.59c.26,0,.55-.06.75.03.82.32,1.37.98,2.97,1.66.59.23,1.37-.1,1.96,0,.29.07,1.24.23,1.5.23,2.51.13,2.8-.59,4.07-.79,1.24-.22,1.47-.55,1.99-.03.49.46.16,1.3.07,1.92-.03.39-.32.65-.36.98-.1.52-.16,1.07-.13,1.56.1,2.83-.03,5.5.16,8.3,0,.26.19.52.23.78.13.98-1.07,1.5-.95,2.47.03.2.16.33.26.4.13.1.29.06.39.13.49.32,1.01.81,1.43,1.2.3.3.69.56,1.04.69.88.29,2.87,1.3,3.78,1.96.36.26.33.29.85.49.26.1.59-.13.79-.23.19-.06.26-.16.16-.78M83.87,45.56c-.29,2.44-.38,2.57-.55,3.32-.13.23-.22.48-.39.72-.03.33-.07.68-.13,1.07q-.36.39-.65.88c-.26.19-.52.42-.81.65-.26,0-.62.22-.88.06-.49-.26.13-.55-.2-1.63-.1-.39-.03-1.23-.16-1.63-.1-.26-.23-.55-.52-.75-.72-.46-.78-.33-1.6-.98-.07-.04-.04-.2-.13-.23-.59-.19-.62-.03-1.92-.22-.1-.04-.23-.07-.36-.14-.33-.16-.62-.39-.98-.46-.3-.09-.65,0-.97-.09-.29-.1-.94-.07-1.27-.2-.84-.33-.84-.39-1.53-.66-.33-.13-.85.23-1.2.06-.91-.35-1.3-.91-2.02-1.33-.13-.3-.29-.59-.49-.91v-1.01c.2-.06.4-.2.59-.29.55-.1,1.14-.16,1.76-.23q.52-.26,2.28-.78c1.31.04,2.57.04,3.85.04h.81c.36-.07.69-.26,1.04-.26.91-.03,1.34.17,2.28.19.36,0,.68-.22,1.04-.26.32-.06.72-.1,1.04,0,.42.1.88.26,1.2.65.32.42.94,1.11.98,1.69.16,2.54,0,2.54-.1,2.7"/>
    <path class="cls-2" d="M52.51,63.57c.17.03.3.69.33.98.1,1.2.03,1.98-.04,3.13-.13,2.21-.23,2.21-.35,2.28,0,.33.2.23.25.59.2.85-.16,2.12-.06,2.93.06.42.42.81,1.17,1.8.49.65.65.45,1.82,1.33.43.33.55.94.98,1.24,1.04.71,1.04.68,1.46.94.16.1.39-.04.52-.1.16-.07.29-.16.32-.26.06-.26.03-.49-.03-.69-.1-.32-.39-.62-.43-.91-.13-1.3.13-1.3.19-3.36.07-2.54-.39-5.47-.36-7.98.04-.36.3-.65.39-.91.1-.75.16-1.5.23-2.18-.1-.82-.16-1.63-.23-2.45.19-.26.36-.45.52-.65.1-.3.23-.58.29-.88q-.16-.26-.39-2.57c.13-.39.26-.81.35-1.21q-.12-5.63-.03-6.74c-.13-.16-.2-.33-.29-.49-.03-.66-.03-1.31-.06-1.96-.32-1.37-.62-2.09-.92-3.45-.16-.16-.29-.33-.42-.45-.13-.76-.23-1.51-.35-2.26q-.23-.26-.78-.48c-.13-.2-.19-.36-.29-.53-.88-.78-1.53-1.11-1.95-1.5-.36-.65-.71-1.33-1.01-1.98-.19-.07-.42-.16-.59-.23-.03-.13-.07-.26-.12-.32-.29-.2-.53-.49-.81-.53-.66-.13-.95.4-2.38.17-1.07-.17-.82-.49-5.83,0-1.04.1-2.93.07-3.9.13-2.77.16-2.8-.16-5.37-.26-.39,0-.72.26-1.04.29-.88.07-1.72.07-2.57,0-.19-.03-.29-.16-.42-.16-.98-.03-.94.23-2.25.29-4.26.1-3.67-.1-9.24-.1-.42,0-.36-.2-.78-.39-.23-.1-.45-.07-.65,0-.91.19-1.04.06-1.5.55-.19.22-.03.59,0,.88.1.32,1.24,1.85,1.63,2.21.13.13.07.36.17.52.19.23.51.32.68.58.2.39.07.39,1.14,1.76.2.26.46.52.72.55,1.53.14,1.56.07,2.38-.12.42-.13.75-.49,1.17-.53,2.57-.29,2.15.49,3.58.43.62-.07,1.2.33,1.79.26.58-.06,1.11-.52,1.66-.56,1.92-.13,3.19.23,5.41.13.13-.03.03-.29,1.99-.42,1.83-.13,1.99-.33,6.12-.13.72.03,1.4.42,2.09.55.68.13,1.56-.29,2.24-.36,1.69-.16,1.37.23,1.53.23,1.36-.23,1.46-.42,2.57.06.46.23.39.94.53,1.41.13.48.32.23.32.71,0,.43-.1.82-.13,1.17q-.13.17-.1,1.47c.19.29.33.59.46.82q0,.78-.09,1.2c-.1,2.48-.26,2.77-.3,4.66-.13.97-.26.94-.3,1.26-.03,1.6.17,1.18.1,3.65-.26.52-.62.74-.97.81-.88.2-1.72.33-2.61.29-1.47,0-2.21.03-3.65.07-.35,0-.72.23-1.07.23-1.89.03-3.74.16-5.58-.1-.26-.04-.22-.56-.06-.69.32-.32.94-.16,1.17-.49,1.07-1.53,1.66-1.95,1.89-2.28.33-.46.33-.49.52-1.76.1-.59.13-1.18.03-1.7-.1-.55-.32-1.04-.52-1.53-.26-.65-.36-.59-1.04-1.5-.19-.26-.88-1.01-1.04-1.24-.13-.19-.49-.13-.55-.29-.13-.26-.4-.62-.49-.81-.16-.23-2.02-.98-2.21-1.01-1.4-.29-.78.06-3.02.29-.81.07-1.82.3-3.71.23-.36,0-.65-.26-.94-.29-1.11-.1-2.22-.13-3.29-.13-.36,0-.23.23-.52.23-.65-.04-1.43-.04-2.05-.07-.58-.03-1.17-.1-1.69-.03-.2.03-.39.19-.46.36-.07.23-.07.49,0,.69.2.55.36.42,1.14,1.27.3.36.33.88.59,1.27.55.85.42,1.1,1.46,1.57.75.29.69.49,3.46.36.52-.03,1.1-.29,1.79-.29,1.01-.03,2.41.03,3.84.03.68.03.62-.16,1.18-.29.42-.1,1.43-.22,1.82-.13.59.19,1.14.39,1.63.65.29.16,1.14-.13,1.27.16.16.45,0,.49-.13.82-.81,1.82-3.1,3.09-4.39,3.38-.2.04-.16.39-.29.42-.26.13-1.17.24-1.4.3-.16.03-.23.19-.36.26-1.53.68-2.21,1.07-3.45,1.11-.82.03-1.66-.04-2.47.03-.17.03-.3.13-.39.23-.13.13-.26.32-.23.46.06.23.2.46.33.59.13.13.39.1.45.23.23.36.3.3.72,1.04.45.75.42.72.71,1.07.43.52.37.59,1.24,1.27,1.17.95,1.24.49,2.05,1.21.42.36.45.1.88.36.58.33,1.89.16,2.51.29,2.08.39,2.9-.22,4.01.33.32.17,1.36,2.02.42,3.84-.07.17-.29.23-.49.23-.65,0-1.04.13-1.66.2-.13,0-.26.1-.36.23-.26.32-.59.42-.82.75-.13.23-1.33.23-2.15.52-.16.06-.19.36-.39.36-.75.1-2.99.06-3.78,0-.42-.06-.81-.26-1.17-.29-.88-.1-.95-.26-2.22.19-2.15.71-2.64-.48-4.98-.23-.36.03-.85.07-.95.36-.32.88-.32.65.95,2.08.12.14.06.37.16.52.36.46.81.78,1.14,1.27.26.36.33.81.55,1.14.16.22.33.42.52.52.29.13.65.19.95.16,1.95-.26,2.18.85,3.81.46.45-.1.94.04,1.36,0,.29,0,.59-.16.85-.19,2.44-.23,5.05-.04,6.97-.42.32-.07.46-.49.75-.62,1.04-.55,1.1-.39,2.67-1.01.29-.13.49-.39.65-.62.13-.17.13-.46.26-.55.33-.33.76-.49,1.01-.78.33-.32.52-.71.68-1.04.13-.26.16-.52.16-.78.04-1.1.1-1.1-.16-2.57-.09-.35-.26-.65-.42-.91-.29-.49-.78-.85-1.01-1.3-.09-.23-.03-.95.1-1.1.36-.36.84-.65,1.3-.72.72-.1,1.5.65,2.12.53,1.2-.23.42-.42,1.88-.56.56-.07,1.08.13,1.6.1.2-.03.29-.17.43-.17.68.04,1.4.04,2.02.13.2.03.3.16.45-.07"/>
  </g>
  <polygon class="cls-1" points="235.04 80.58 223.22 33.91 218.98 33.91 230.79 80.58 235.04 80.58"/>
  <g>
    <path class="cls-1" d="M255.25,35.74c.39-.28.89-.49,1.49-.64.6-.15,1.2-.23,1.8-.23s1.11.07,1.65.22c.53.15.99.37,1.39.67.4.3.72.67.97,1.12.25.45.37.99.37,1.61s-.15,1.18-.45,1.63c-.3.45-.61.78-.95.98.22.07.48.13.77.19.3.05.61.08.95.08.46,0,.89-.05,1.28-.14.38-.1.68-.21.88-.36v-3.77h-1.35v-2.05h5.84v2.05h-1.81v11.88h-2.68v-5.73c-.12.07-.29.13-.53.16-.24.04-.51.05-.8.05s-.54-.03-.78-.08c-.25-.05-.49-.13-.74-.23l-.04.07c.2.22.36.49.48.82s.17.68.17,1.06c0,.57-.11,1.07-.33,1.51-.22.44-.52.82-.92,1.12-.39.31-.87.54-1.43.7s-1.19.24-1.88.24c-.78,0-1.53-.11-2.22-.33-.7-.22-1.23-.48-1.61-.78l.83-1.83c.35.26.74.46,1.17.61.43.15.91.22,1.45.22.65,0,1.19-.16,1.6-.49.41-.33.62-.79.62-1.38s-.2-1.1-.6-1.46c-.4-.36-.98-.54-1.73-.54h-1.55v-2.07h1.29c.7,0,1.26-.16,1.7-.49s.65-.78.65-1.36-.2-1.04-.6-1.33c-.4-.29-.88-.44-1.43-.44-.38,0-.75.05-1.11.15-.36.1-.71.26-1.05.48l-.76-1.87Z"/>
    <path class="cls-1" d="M279.72,37.09v-2.05h5.4v2.05h-1.81v11.88h-2.68v-6.3c-.2.1-.5.19-.89.25s-.83.1-1.31.1c-.25,0-.5-.02-.76-.07-.26-.04-.52-.1-.77-.16-.25-.06-.49-.14-.72-.22-.23-.08-.42-.16-.58-.25-.49.29-.91.56-1.24.81-.33.25-.6.48-.81.7s-.35.43-.44.63c-.09.2-.13.42-.13.65,0,.51.17.89.5,1.14.33.26.73.38,1.18.38.41,0,.69-.06.85-.17l-.57-1.74c.2-.22.45-.39.74-.53.29-.14.62-.21,1-.21.58,0,1.02.19,1.33.58.3.38.46.82.46,1.3,0,.38-.06.7-.18.96-.12.26-.24.45-.36.57l1.26,2.88-2.27.83-.74-2.64c-.09.06-.28.12-.59.2-.3.07-.65.11-1.02.11-.55,0-1.09-.07-1.61-.22-.52-.14-.99-.37-1.4-.69-.41-.31-.73-.71-.98-1.19-.25-.48-.37-1.05-.37-1.72,0-.38.05-.73.14-1.07s.27-.67.51-.99.59-.66,1.04-1.01c.44-.35,1.01-.73,1.71-1.13.45-.26.82-.5,1.12-.72s.53-.43.71-.63c.17-.2.29-.4.36-.6.07-.2.1-.41.1-.64,0-.35-.11-.63-.32-.86-.21-.22-.5-.34-.88-.34-.33,0-.62.11-.85.33s-.35.49-.35.81.06.56.2.76c.13.2.29.38.48.52l-1.72,1.18c-.47-.3-.83-.67-1.09-1.11s-.39-.94-.39-1.5c0-.41.09-.8.27-1.16.18-.37.44-.7.76-.98.33-.28.73-.51,1.2-.68.47-.17.99-.25,1.56-.25.61,0,1.16.1,1.63.29.48.2.88.45,1.21.76.33.31.58.67.75,1.08.17.41.26.83.26,1.26s-.09.89-.26,1.31c-.17.42-.45.84-.83,1.24.29.07.58.11.87.11.45,0,.87-.06,1.26-.17.39-.12.71-.28.96-.48v-3.16h-.92Z"/>
    <path class="cls-1" d="M292.47,47.98l-2.4,1.42-3.99-6.08c-.25-.36-.42-.67-.53-.92s-.16-.48-.16-.7c0-.38.16-.68.48-.91.32-.22.74-.34,1.26-.34l.37.5c.15.19.31.34.48.45.17.11.36.16.57.16.42,0,.78-.16,1.07-.47.29-.31.44-.8.44-1.47,0-.58-.09-1.09-.26-1.53-.17-.44-.36-.78-.54-1.02h-4.55v-2.05h9.72v2.05h-2.44c.16.22.33.57.52,1.05.19.48.28,1.07.28,1.77,0,.62-.11,1.17-.33,1.65-.22.47-.49.86-.83,1.18-.33.31-.71.55-1.13.71-.42.16-.83.24-1.22.24-.06,0-.11,0-.15-.02l3.36,4.34Z"/>
    <path class="cls-1" d="M295.76,37.09h-1.79v-2.05h6.28v2.05h-1.81v11.88h-2.68v-11.88Z"/>
    <path class="cls-1" d="M311.55,37.09v11.88h-2.68v-3.31c-.16.13-.47.28-.93.44-.46.16-1.06.24-1.8.24-.68,0-1.36-.1-2.02-.3-.66-.2-1.26-.53-1.79-.99-.53-.46-.96-1.05-1.29-1.79s-.49-1.62-.49-2.67l.48-.02c.92-.04,1.6-.2,2.06-.48.46-.28.69-.74.69-1.4,0-.32-.06-.61-.2-.88-.13-.27-.29-.5-.48-.71h-3.31v-2.05h13.53v2.05h-1.79ZM308.87,43.24v-6.15h-3.03c.17.2.33.48.47.82.14.34.21.71.21,1.12,0,.49-.08.93-.25,1.31s-.39.69-.68.95c-.28.25-.61.45-.99.6s-.78.24-1.2.28c.02.25.09.5.23.74.14.25.33.46.58.65.25.19.54.34.89.46.35.12.75.18,1.2.18.67,0,1.22-.11,1.66-.32.44-.21.74-.42.92-.64Z"/>
    <path class="cls-1" d="M323.41,41.71v1.72h-4.79v-1.72h4.79Z"/>
    <path class="cls-1" d="M329.77,35.96c.33-.28.79-.5,1.37-.66.58-.17,1.15-.25,1.7-.25s1.09.08,1.57.23c.48.15.9.37,1.26.67.36.29.65.65.85,1.09.2.44.3.94.3,1.5,0,.7-.16,1.28-.48,1.75-.32.47-.69.84-1.11,1.1.42.12.85.2,1.29.25s.84.08,1.2.08c.44,0,.89-.06,1.36-.18.47-.12.82-.25,1.06-.41v-4.49h-2.01v-1.39h5.67v1.39h-1.96v12.33h-1.7v-6.12c-.52.23-1.16.35-1.9.35-.32,0-.61-.03-.88-.08s-.6-.15-.99-.31l-.04.04c.26.3.46.62.6.95s.21.7.21,1.12c0,1.18-.38,2.1-1.14,2.76-.76.66-1.8.99-3.11.99-.33,0-.67-.03-1-.09-.34-.06-.66-.14-.98-.25-.32-.11-.61-.23-.88-.38-.27-.14-.5-.3-.69-.48l.72-1.24c.38.32.79.56,1.23.73.44.17.94.25,1.49.25.35,0,.68-.04.99-.13.31-.09.59-.22.83-.41s.43-.44.58-.74c.15-.3.22-.67.22-1.09,0-.74-.23-1.34-.69-1.79-.46-.45-1.2-.67-2.23-.67h-1.35v-1.42h1.15c.86.01,1.54-.18,2.05-.59s.76-.99.76-1.74c0-.71-.23-1.24-.7-1.59-.47-.35-1-.52-1.61-.52-.33,0-.71.05-1.12.14-.41.09-.81.27-1.19.53l-.7-1.22Z"/>
    <path class="cls-1" d="M349.16,44.93c.35-.42.81-.63,1.39-.63.52,0,.92.16,1.2.48.28.32.41.7.41,1.13,0,.33-.06.63-.19.88-.12.26-.26.46-.42.62l1.02,2.7-1.57.57-.68-2.55c-.17.12-.43.21-.75.28s-.66.11-.99.11c-.52,0-1.03-.06-1.53-.2s-.93-.34-1.32-.62c-.39-.28-.7-.66-.94-1.12s-.36-1.03-.36-1.7c0-.41.06-.78.17-1.12.12-.34.31-.67.59-.98.28-.31.64-.63,1.1-.95.46-.32,1.03-.67,1.71-1.05.41-.23.76-.45,1.05-.65.29-.2.53-.41.72-.61.19-.2.32-.43.4-.67s.12-.5.12-.8c0-.46-.15-.86-.45-1.18s-.68-.48-1.14-.48c-.19,0-.38.03-.58.1-.2.06-.37.16-.52.28-.15.12-.28.28-.38.46-.1.18-.15.4-.15.64,0,.41.09.75.27,1.04.18.28.42.54.71.77l-1.22.85c-.46-.33-.82-.72-1.08-1.17-.25-.44-.38-.98-.38-1.6,0-.36.08-.71.24-1.05.16-.33.38-.63.68-.89.29-.26.64-.47,1.05-.63s.86-.24,1.37-.24.97.09,1.37.26.76.41,1.05.71c.29.3.51.64.67,1.02s.24.79.24,1.21c0,.61-.12,1.16-.36,1.64-.24.49-.62.94-1.14,1.36.45.13.95.2,1.5.2.61,0,1.16-.07,1.63-.22.48-.15.86-.33,1.13-.54v-3.99h-1.35v-1.39h5.01v1.39h-1.96v12.33h-1.7v-6.49c-.29.14-.65.25-1.09.33-.44.07-.92.11-1.46.11-.48,0-1.01-.09-1.58-.26-.57-.17-1.06-.38-1.47-.63-.54.29-.99.56-1.37.82s-.69.5-.93.74-.41.49-.52.74c-.11.26-.16.53-.16.82,0,.36.06.67.2.92s.3.44.51.59c.21.15.45.25.73.32s.56.1.85.1c.2,0,.42-.03.64-.09.22-.06.41-.14.56-.24l-.57-1.79Z"/>
    <path class="cls-1" d="M365.2,48.2l-1.48.98-4.2-6.17c-.23-.34-.39-.59-.47-.77-.08-.18-.12-.35-.12-.51,0-.3.12-.54.35-.7.23-.16.5-.24.81-.24l.46.59c.18.23.36.39.54.48s.43.13.72.13c.57,0,1.05-.22,1.44-.65.39-.44.59-1.05.59-1.83,0-.65-.1-1.22-.3-1.7-.2-.48-.43-.87-.68-1.18h-4.79v-1.39h9.37v1.39h-2.9c.23.26.46.66.7,1.19.23.53.35,1.12.35,1.78,0,.58-.09,1.11-.26,1.58-.17.47-.42.88-.73,1.21-.31.34-.69.59-1.12.77s-.91.27-1.44.27h-.18s-.1,0-.17-.02l3.53,4.79Z"/>
    <path class="cls-1" d="M368.95,36.63h-1.96v-1.39h5.62v1.39h-1.96v12.33h-1.7v-12.33ZM368.6,32.1c0-.29.11-.56.34-.8.22-.24.51-.36.86-.36s.65.12.86.36c.21.24.31.5.31.8,0,.33-.11.61-.33.84-.22.22-.5.34-.85.34s-.63-.11-.86-.34-.34-.51-.34-.84Z"/>
    <path class="cls-1" d="M380.52,40.86v-4.23h-8.35v-1.39h12.01v1.39h-1.96v12.33h-1.7v-6.65h-4.29l.11,1.74c-.06.07-.18.16-.35.25-.17.1-.41.14-.7.14-.58,0-1.06-.21-1.45-.62-.38-.42-.58-.93-.58-1.54,0-.38.12-.71.36-1,.24-.29.61-.44,1.12-.44h5.77Z"/>
    <path class="cls-1" d="M385.71,36.63h-1.96v-1.39h5.62v1.39h-1.96v12.33h-1.7v-12.33Z"/>
    <path class="cls-1" d="M399.11,38.72c.78,0,1.44.14,1.97.41.53.28.94.58,1.23.92v-3.42h-8.54v-1.39h12.2v1.39h-1.96v12.33h-1.7v-3.42c-.26.26-.64.52-1.12.78-.49.26-1.14.39-1.97.39-.6,0-1.15-.09-1.68-.27-.52-.18-.98-.45-1.38-.81-.4-.36-.72-.79-.95-1.31-.23-.52-.35-1.12-.35-1.8,0-.62.11-1.17.32-1.64.21-.47.51-.87.89-1.19s.84-.56,1.35-.73,1.08-.25,1.69-.25ZM402.31,41.8c-.25-.41-.62-.78-1.13-1.11s-1.09-.5-1.74-.5c-.83,0-1.5.2-2.02.6-.52.4-.77,1.01-.77,1.82,0,.97.26,1.66.78,2.05.52.39,1.23.59,2.11.59.38,0,.73-.06,1.07-.19.33-.12.63-.29.88-.5.25-.21.45-.46.6-.75.14-.29.22-.6.22-.94v-1.07Z"/>
    <path class="cls-1" d="M407.5,36.63h-1.96v-1.39h5.62v1.39h-1.96v12.33h-1.7v-12.33Z"/>
    <path class="cls-1" d="M412.68,36.63h-1.96v-1.39h1.81c-.07-.1-.15-.28-.24-.52-.09-.25-.13-.58-.13-1,0-.45.09-.88.27-1.29.18-.41.46-.76.84-1.06.38-.3.85-.53,1.43-.71s1.25-.26,2.02-.26c1,0,1.91.17,2.71.51.81.34,1.53.76,2.16,1.26.63.5,1.18,1.04,1.64,1.61s.84,1.09,1.13,1.56l.22.35-1.37.7-.35-.52c-.35-.52-.74-1.03-1.17-1.51-.43-.49-.9-.91-1.41-1.28s-1.05-.65-1.63-.87-1.21-.33-1.87-.33c-.51,0-.94.06-1.31.17-.36.12-.66.27-.88.47-.22.2-.39.43-.49.69-.1.26-.15.54-.15.85,0,.45.07.84.22,1.18h2.18v1.39h-1.96v12.33h-1.7v-12.33Z"/>
    <path class="cls-1" d="M423.21,51.1c-1.05-.12-1.95-.33-2.7-.63-.76-.3-1.38-.68-1.86-1.11s-.85-.93-1.08-1.47c-.23-.54-.35-1.11-.35-1.71s.09-1.05.27-1.45c.18-.4.42-.74.71-1.04-.32-.33-.6-.69-.84-1.08s-.36-.85-.36-1.38c0-.41.08-.77.23-1.08.15-.31.36-.57.61-.77.25-.2.55-.36.89-.46.34-.1.7-.15,1.08-.15h3.03v-2.14h-7.15v-1.39h11.46v1.39h-2.64v3.53h-4.12c-.45,0-.84.08-1.17.23-.33.15-.49.49-.49,1.01,0,.29.06.56.17.81.12.25.26.47.42.68.38-.22.79-.37,1.23-.46.44-.09.9-.13,1.36-.13.61,0,1.16.09,1.64.26.49.17.9.41,1.23.72.34.3.59.66.77,1.06.18.4.27.82.27,1.28s-.1.9-.28,1.32-.43.76-.72,1.04l-1.31-.94c.19-.19.34-.4.45-.62s.16-.48.16-.77c0-.22-.04-.44-.12-.67-.08-.22-.21-.42-.38-.6-.17-.17-.41-.32-.7-.44-.29-.12-.65-.17-1.07-.17-.87,0-1.58.23-2.11.69-.54.46-.81,1.05-.81,1.78,0,.39.06.78.19,1.16.12.38.36.72.71,1.04.35.31.83.58,1.44.82.61.23,1.4.4,2.37.5l-.46,1.37Z"/>
    <path class="cls-1" d="M433.93,41.4c-.25-.26-.56-.46-.93-.59-.37-.13-.71-.2-1.01-.2-.71,0-1.3.2-1.76.59-.46.39-.69,1.02-.69,1.87,0,.6.1,1.13.29,1.6s.46.9.8,1.3c.33.39.72.75,1.17,1.07.44.32.91.61,1.4.87l-1.05,1.24c-.6-.32-1.16-.69-1.69-1.1-.53-.41-.99-.88-1.38-1.38-.39-.51-.7-1.07-.94-1.68-.23-.61-.35-1.28-.35-2,0-.67.11-1.24.33-1.72.22-.48.51-.88.87-1.19.36-.31.78-.54,1.25-.7.47-.15.96-.23,1.47-.23.55,0,1.07.11,1.56.32.49.21.91.5,1.28.88.26-.36.61-.65,1.06-.85.44-.2.92-.3,1.43-.3.23,0,.48.02.73.05.25.04.45.09.58.16v-2.79h-11.64v-1.39h15.3v1.39h-1.96v12.33h-1.7v-8.15c-.12-.06-.26-.11-.42-.14-.17-.04-.37-.05-.62-.05-.74,0-1.28.31-1.6.95-.33.63-.51,1.57-.55,2.8h-1.68c0-.7.05-1.29.14-1.78.1-.49.2-.88.32-1.19Z"/>
    <path class="cls-1" d="M431.58,30.23c.25-.13.56-.24.95-.34.38-.1.78-.14,1.19-.14,1.06,0,1.94.27,2.64.8.7.53,1.29,1.27,1.79,2.21l1.65,3.14h-1.33l-1.68-2.53c-.2-.3-.41-.58-.61-.82-.2-.24-.43-.44-.67-.61s-.5-.29-.8-.37-.62-.12-1-.12c-.29,0-.57.03-.84.1-.27.07-.5.14-.71.23l-.59-1.55Z"/>
    <path class="cls-1" d="M448.79,41.4c-.25-.26-.56-.46-.93-.59-.37-.13-.71-.2-1.01-.2-.71,0-1.3.2-1.76.59-.46.39-.69,1.02-.69,1.87,0,.6.1,1.13.29,1.6s.46.9.8,1.3c.33.39.72.75,1.17,1.07.44.32.91.61,1.4.87l-1.05,1.24c-.6-.32-1.16-.69-1.69-1.1-.53-.41-.99-.88-1.38-1.38-.39-.51-.7-1.07-.94-1.68-.23-.61-.35-1.28-.35-2,0-.67.11-1.24.33-1.72.22-.48.51-.88.87-1.19.36-.31.78-.54,1.25-.7.47-.15.96-.23,1.47-.23.55,0,1.07.11,1.56.32.49.21.91.5,1.28.88.26-.36.61-.65,1.06-.85.44-.2.92-.3,1.43-.3.23,0,.48.02.73.05.25.04.45.09.58.16v-2.79h-11.64v-1.39h15.3v1.39h-1.96v12.33h-1.7v-8.15c-.12-.06-.26-.11-.42-.14-.17-.04-.37-.05-.62-.05-.74,0-1.28.31-1.6.95-.33.63-.51,1.57-.55,2.8h-1.68c0-.7.05-1.29.14-1.78.1-.49.2-.88.32-1.19Z"/>
    <path class="cls-1" d="M458.4,36.63h-1.96v-1.39h1.85c-.1-.35-.24-.75-.4-1.2-.17-.45-.38-.87-.63-1.26-.25-.39-.56-.72-.92-.99s-.76-.4-1.21-.4c-1,0-1.5.53-1.5,1.59,0,.42.08.83.24,1.22.16.39.34.74.54,1.05l-1.05.85-.5-.63c-.28-.35-.51-.75-.71-1.21-.2-.46-.29-.96-.29-1.52,0-.8.28-1.47.84-2.02.56-.54,1.34-.82,2.34-.82.54,0,1.02.09,1.46.27s.82.42,1.16.72c.33.3.63.64.88,1.01s.47.76.65,1.15.33.78.44,1.17.2.72.27,1.01h2.16v1.39h-1.96v12.33h-1.7v-12.33Z"/>
    <path class="cls-1" d="M470.8,45.02c-.07.09-.21.18-.4.26-.2.09-.42.13-.69.13-.29,0-.56-.05-.82-.16s-.48-.26-.69-.45c-.2-.19-.36-.41-.48-.68-.12-.26-.17-.54-.17-.85,0-.38.11-.68.34-.9.23-.22.55-.34.97-.34h.26v-5.41h-2.66v-1.39h12.51v1.39h-1.96v12.33h-1.7v-5.51h-4.51v1.57ZM470.8,36.63v5.41h4.51v-5.41h-4.51Z"/>
    <path class="cls-1" d="M480.5,36.63h-1.96v-1.39h5.62v1.39h-1.96v12.33h-1.7v-12.33Z"/>
    <path class="cls-1" d="M483.72,36.63v-1.39h15.49v1.39h-1.96v12.33h-1.7v-12.33h-2.96v4.88c0,.64-.09,1.2-.27,1.67-.18.47-.44.87-.76,1.2s-.72.57-1.17.73c-.45.16-.94.24-1.48.24-1.06,0-1.93-.32-2.6-.97-.68-.65-1.01-1.6-1.01-2.87v-4.88h-1.57ZM486.99,41.47c0,.87.16,1.49.49,1.86.33.37.8.56,1.41.56.65,0,1.15-.19,1.49-.58.34-.38.51-1,.51-1.84v-4.84h-3.9v4.84Z"/>
    <path class="cls-1" d="M505.92,48.2l-1.48.98-4.2-6.17c-.23-.34-.39-.59-.47-.77-.08-.18-.12-.35-.12-.51,0-.3.12-.54.35-.7.23-.16.5-.24.81-.24l.46.59c.18.23.36.39.54.48s.43.13.72.13c.57,0,1.05-.22,1.44-.65.39-.44.59-1.05.59-1.83,0-.65-.1-1.22-.3-1.7-.2-.48-.43-.87-.68-1.18h-4.79v-1.39h14.97v1.39h-1.96v12.33h-1.7v-5.64c-.58.29-1.39.44-2.44.44-.51,0-1.02-.09-1.53-.26-.51-.17-.95-.39-1.33-.65-.57.39-1.25.59-2.05.59h-.18s-.1,0-.17-.02l3.53,4.79ZM507.43,42.23c.61,0,1.14-.07,1.58-.22.44-.14.8-.33,1.08-.54v-4.84h-4.84c.23.26.46.66.7,1.19.23.53.35,1.12.35,1.78,0,.89-.2,1.65-.61,2.29.26.12.53.2.81.26s.59.09.94.09Z"/>
    <path class="cls-1" d="M509.72,32.1c0-.29.11-.56.34-.8.23-.24.51-.36.86-.36s.65.12.86.36c.21.24.31.5.31.8,0,.33-.11.61-.33.84-.22.22-.5.34-.85.34s-.63-.11-.86-.34c-.22-.23-.34-.51-.34-.84Z"/>
  </g>
  <g>
    <path class="cls-1" d="M264.84,66.39h3.09l5.08,13.73h-3.16l-1.07-3.16h-4.88l-1.07,3.16h-3.12l5.12-13.73ZM264.58,74.75h3.49l-.63-1.83c-.2-.57-.39-1.14-.57-1.71s-.34-1.15-.5-1.73h-.04c-.16.55-.33,1.12-.52,1.69-.19.57-.39,1.16-.59,1.75l-.63,1.83Z"/>
    <path class="cls-1" d="M277.48,76.63v3.49h-2.88v-15.56h2.88v9.24l3.49-4.08h3.51l-4.01,4.38,4.2,6.01h-3.42l-2.92-4.34-.85.85Z"/>
    <path class="cls-1" d="M292.34,72.2c-.86-.41-1.69-.61-2.48-.61-.46,0-.82.08-1.08.24s-.38.38-.38.65.11.5.34.68c.22.17.68.36,1.36.57l.65.2c.9.26,1.58.64,2.05,1.13.46.5.7,1.13.7,1.92,0,1.03-.4,1.85-1.19,2.46-.79.61-1.86.92-3.21.92s-2.56-.25-3.55-.74l.65-2.14c.42.22.86.4,1.33.53s.94.21,1.42.21c.58,0,1.01-.09,1.28-.27.27-.18.4-.42.4-.71s-.13-.54-.39-.71c-.26-.17-.76-.35-1.48-.55l-.68-.2c-.87-.29-1.51-.68-1.92-1.16-.41-.48-.61-1.12-.61-1.92,0-.94.36-1.71,1.07-2.31s1.71-.89,2.99-.89,2.38.23,3.36.68l-.61,2.03Z"/>
    <path class="cls-1" d="M298.48,80.11h-2.9v-15.56h2.9v6.1c.42-.33.9-.61,1.45-.83s1.14-.33,1.78-.33,1.14.09,1.6.27c.46.18.84.44,1.13.76s.52.72.66,1.18c.15.46.22.96.22,1.49v6.91h-2.9v-6.41c0-.71-.15-1.22-.44-1.53-.29-.3-.71-.46-1.26-.46-.38,0-.77.09-1.17.27s-.76.43-1.08.73v7.39Z"/>
    <path class="cls-1" d="M308.16,70.63c.62-.36,1.29-.64,1.98-.84.7-.2,1.44-.29,2.22-.29.62,0,1.2.07,1.71.22.51.15.96.37,1.33.69.37.31.65.71.85,1.2.2.49.29,1.07.29,1.75v6.76h-2.24l-.26-1.07h-.09c-.33.41-.76.73-1.28.96s-1.12.35-1.8.35c-.57,0-1.07-.08-1.5-.25s-.81-.39-1.11-.68c-.31-.28-.53-.62-.69-1.01-.15-.39-.23-.81-.23-1.26,0-.6.13-1.11.38-1.54.25-.43.61-.78,1.06-1.06.45-.28.98-.48,1.58-.61.6-.13,1.25-.2,1.95-.2h1.31v-.63c0-.48-.15-.83-.45-1.06-.3-.22-.72-.34-1.25-.34-.42,0-.85.06-1.3.2s-.93.34-1.47.63l-1-1.92ZM313.65,75.56l-.94.02c-.89.03-1.5.18-1.85.45-.35.27-.52.59-.52.97,0,.49.15.83.45,1.01s.63.27,1.01.27.74-.11,1.08-.33c.34-.22.6-.47.77-.76v-1.63Z"/>
    <path class="cls-1" d="M319.01,80.11v-10.39h2.24l.33,1.87c.25-.55.64-1.04,1.18-1.46.54-.42,1.21-.63,2.03-.63.33,0,.63.04.89.11.26.07.48.16.65.26l-.48,2.29c-.16-.09-.36-.16-.61-.23-.25-.07-.54-.1-.87-.1-.71,0-1.3.24-1.78.71-.47.47-.71,1.25-.71,2.32v5.25h-2.88Z"/>
    <path class="cls-1" d="M327.36,70.63c.62-.36,1.29-.64,1.98-.84.7-.2,1.44-.29,2.22-.29.62,0,1.2.07,1.71.22.51.15.96.37,1.33.69.37.31.65.71.85,1.2.2.49.29,1.07.29,1.75v6.76h-2.24l-.26-1.07h-.09c-.33.41-.76.73-1.28.96s-1.12.35-1.8.35c-.57,0-1.07-.08-1.5-.25s-.81-.39-1.11-.68c-.3-.28-.53-.62-.69-1.01-.15-.39-.23-.81-.23-1.26,0-.6.13-1.11.38-1.54.25-.43.61-.78,1.06-1.06.45-.28.98-.48,1.58-.61.6-.13,1.25-.2,1.95-.2h1.31v-.63c0-.48-.15-.83-.45-1.06-.3-.22-.72-.34-1.25-.34-.42,0-.85.06-1.3.2s-.93.34-1.47.63l-1-1.92ZM332.85,75.56l-.94.02c-.89.03-1.5.18-1.85.45-.35.27-.52.59-.52.97,0,.49.15.83.45,1.01s.63.27,1.01.27.74-.11,1.08-.33c.34-.22.6-.47.77-.76v-1.63Z"/>
    <path class="cls-1" d="M336.82,69.72h3.16l1.85,4.95.7,2.53h.09l.68-2.55,1.61-4.92h2.96l-3.81,10.77c-.22.59-.46,1.16-.73,1.71s-.6,1.05-.98,1.52-.84.88-1.36,1.24c-.52.36-1.14.66-1.85.89l-1.2-2.24c.81-.29,1.5-.71,2.05-1.26.55-.55.93-1.21,1.13-1.98l.09-.28-4.38-10.35Z"/>
    <path class="cls-1" d="M349.26,70.63c.62-.36,1.29-.64,1.98-.84.7-.2,1.44-.29,2.22-.29.62,0,1.2.07,1.71.22.51.15.96.37,1.33.69.37.31.65.71.85,1.2.2.49.29,1.07.29,1.75v6.76h-2.24l-.26-1.07h-.09c-.33.41-.76.73-1.28.96s-1.12.35-1.8.35c-.57,0-1.07-.08-1.5-.25s-.81-.39-1.11-.68c-.3-.28-.53-.62-.69-1.01-.15-.39-.23-.81-.23-1.26,0-.6.13-1.11.38-1.54.25-.43.61-.78,1.06-1.06.45-.28.98-.48,1.58-.61.6-.13,1.25-.2,1.95-.2h1.31v-.63c0-.48-.15-.83-.45-1.06-.3-.22-.72-.34-1.25-.34-.42,0-.85.06-1.3.2s-.93.34-1.47.63l-1-1.92ZM354.75,75.56l-.94.02c-.89.03-1.5.18-1.85.45-.35.27-.52.59-.52.97,0,.49.15.83.45,1.01s.63.27,1.01.27.74-.11,1.08-.33c.34-.22.6-.47.77-.76v-1.63Z"/>
    <path class="cls-1" d="M369.09,72.86v1.72h-4.79v-1.72h4.79Z"/>
    <path class="cls-1" d="M376.32,66.39h2.01v12.03h5.86v1.7h-7.87v-13.73Z"/>
    <path class="cls-1" d="M394.71,75.21h-7.34v.09c0,1.13.31,2.01.93,2.61.62.61,1.46.92,2.52.92.55,0,1.04-.04,1.47-.13s.9-.23,1.41-.44l.39,1.42c-.42.19-.92.34-1.49.46s-1.19.17-1.84.17c-.74,0-1.44-.1-2.08-.3-.65-.2-1.22-.52-1.71-.95-.5-.43-.88-.98-1.17-1.64-.28-.67-.43-1.47-.43-2.4,0-.8.12-1.53.36-2.18.24-.65.58-1.21,1.01-1.67.44-.46.96-.81,1.58-1.07.62-.25,1.31-.38,2.08-.38.65,0,1.25.11,1.78.33.53.22.98.52,1.36.92s.67.86.87,1.42c.2.55.3,1.16.3,1.83v1ZM392.73,73.84c0-.38-.05-.73-.14-1.06-.09-.33-.24-.61-.44-.86-.2-.25-.45-.44-.75-.59-.3-.15-.68-.22-1.11-.22-.8,0-1.45.25-1.95.76-.5.51-.81,1.18-.93,2l5.32-.04Z"/>
    <path class="cls-1" d="M402.36,71.31h-3.01v5.95c0,.51.13.85.38,1.02.25.17.58.26.99.26.29,0,.61-.03.96-.1.35-.07.65-.14.92-.23l.3,1.46c-.29.12-.66.22-1.11.3-.45.09-.92.13-1.42.13-1.02,0-1.76-.22-2.22-.66-.47-.44-.7-1.09-.7-1.93v-6.21h-1.53v-1.44h1.53v-3.27h1.9v3.27h3.01v1.44Z"/>
    <path class="cls-1" d="M410.07,71.31h-3.01v5.95c0,.51.13.85.38,1.02.25.17.58.26.99.26.29,0,.61-.03.96-.1.35-.07.65-.14.92-.23l.3,1.46c-.29.12-.66.22-1.11.3-.45.09-.92.13-1.42.13-1.02,0-1.76-.22-2.22-.66-.47-.44-.7-1.09-.7-1.93v-6.21h-1.53v-1.44h1.53v-3.27h1.9v3.27h3.01v1.44Z"/>
    <path class="cls-1" d="M421.34,75.21h-7.34v.09c0,1.13.31,2.01.93,2.61.62.61,1.46.92,2.52.92.55,0,1.04-.04,1.47-.13s.9-.23,1.41-.44l.39,1.42c-.42.19-.92.34-1.49.46s-1.19.17-1.84.17c-.74,0-1.44-.1-2.08-.3-.65-.2-1.22-.52-1.71-.95-.5-.43-.88-.98-1.17-1.64-.28-.67-.43-1.47-.43-2.4,0-.8.12-1.53.36-2.18.24-.65.58-1.21,1.01-1.67.44-.46.96-.81,1.58-1.07.62-.25,1.31-.38,2.08-.38.65,0,1.25.11,1.78.33.53.22.98.52,1.36.92s.67.86.87,1.42c.2.55.3,1.16.3,1.83v1ZM419.36,73.84c0-.38-.05-.73-.14-1.06-.09-.33-.24-.61-.44-.86-.2-.25-.45-.44-.75-.59-.3-.15-.68-.22-1.11-.22-.8,0-1.45.25-1.95.76-.5.51-.81,1.18-.93,2l5.32-.04Z"/>
    <path class="cls-1" d="M423.56,80.11v-10.24h1.44l.33,2.05c.25-.65.65-1.18,1.22-1.59.57-.41,1.22-.61,1.96-.61.38,0,.69.03.94.09s.47.13.68.22l-.37,1.68c-.17-.09-.37-.16-.58-.22-.21-.06-.46-.09-.75-.09-.42,0-.81.07-1.17.22s-.67.36-.94.65-.48.65-.63,1.08c-.15.43-.23.92-.23,1.47v5.29h-1.89Z"/>
    <path class="cls-1" d="M442.8,78.65c.73,0,1.33-.06,1.8-.17s.94-.28,1.41-.5l.46,1.61c-.51.25-1.06.43-1.67.54s-1.34.17-2.21.17-1.75-.15-2.55-.46c-.8-.3-1.49-.75-2.08-1.35s-1.05-1.33-1.39-2.21c-.34-.88-.51-1.89-.51-3.04s.17-2.12.5-3c.34-.88.8-1.62,1.38-2.22.59-.6,1.29-1.06,2.1-1.37.81-.31,1.7-.47,2.66-.47.9,0,1.64.07,2.22.22.58.14,1.12.34,1.61.59l-.48,1.57c-.28-.12-.53-.22-.77-.32-.24-.09-.48-.17-.72-.23-.24-.06-.49-.1-.74-.13s-.54-.04-.86-.04c-.64,0-1.25.1-1.82.29-.57.2-1.08.51-1.5.95-.43.44-.77,1-1.02,1.69-.25.69-.38,1.52-.38,2.5s.12,1.82.37,2.51c.25.68.58,1.23.99,1.66.41.42.9.73,1.45.93.55.2,1.14.29,1.77.29Z"/>
    <path class="cls-1" d="M458.12,74.88c0,.86-.13,1.62-.39,2.3-.26.68-.62,1.25-1.08,1.71s-.99.82-1.6,1.06c-.61.24-1.27.36-1.98.36s-1.37-.11-1.97-.34-1.13-.56-1.57-1c-.44-.44-.79-.99-1.05-1.63s-.38-1.39-.38-2.23.13-1.62.39-2.29c.26-.67.62-1.23,1.08-1.69s.99-.81,1.6-1.05c.61-.24,1.27-.36,1.98-.36s1.37.11,1.97.33,1.13.54,1.57.98c.44.44.79.98,1.05,1.62s.38,1.39.38,2.23ZM456.12,74.99c0-.68-.09-1.26-.26-1.74s-.4-.87-.69-1.18c-.28-.3-.61-.53-.97-.67-.36-.14-.73-.21-1.11-.21s-.75.06-1.11.17c-.36.12-.68.32-.96.61-.28.29-.5.68-.66,1.16-.17.49-.25,1.1-.25,1.84,0,.68.09,1.27.26,1.75.18.49.4.88.69,1.19.28.3.61.53.97.68s.73.22,1.11.22.75-.06,1.11-.19c.36-.12.68-.33.96-.63s.5-.69.66-1.18.25-1.1.25-1.84Z"/>
    <path class="cls-1" d="M462.37,80.11h-1.92v-10.24h1.5l.28,1.42c.51-.51,1.04-.9,1.6-1.17.56-.27,1.2-.4,1.93-.4,1.05,0,1.87.29,2.46.88.6.59.89,1.4.89,2.45v7.06h-1.92v-6.78c0-.62-.16-1.12-.49-1.49-.33-.37-.82-.55-1.49-.55-1.02,0-1.97.46-2.85,1.37v7.45Z"/>
    <path class="cls-1" d="M477.84,71.79c-.48-.23-.92-.39-1.31-.48-.39-.09-.78-.13-1.18-.13-.7,0-1.21.13-1.55.38-.34.25-.5.59-.5,1.01,0,.3.12.57.35.8.23.23.72.45,1.46.67l.65.2c.97.29,1.71.66,2.21,1.12.5.46.75,1.08.75,1.86,0,.93-.34,1.68-1.04,2.24-.69.57-1.65.85-2.89.85-.65,0-1.28-.06-1.88-.17s-1.12-.28-1.56-.48l.46-1.5c.42.2.88.37,1.37.49.49.12,1,.19,1.5.19.65,0,1.17-.12,1.56-.35.38-.23.58-.62.58-1.15,0-.46-.17-.8-.5-.99-.33-.2-.81-.39-1.44-.58l-.68-.22c-.94-.3-1.65-.69-2.1-1.14-.46-.46-.69-1.05-.69-1.78,0-.44.1-.84.28-1.2s.45-.67.77-.92.71-.44,1.17-.58c.45-.14.94-.21,1.48-.21s1.04.05,1.58.14c.54.09,1.06.25,1.56.47l-.44,1.46Z"/>
    <path class="cls-1" d="M485.82,78.83c.46,0,.87-.05,1.22-.15.35-.1.69-.23,1.02-.39l.41,1.44c-.78.39-1.72.59-2.81.59-.74,0-1.44-.11-2.08-.33-.65-.22-1.21-.55-1.7-.99s-.87-1-1.14-1.66-.41-1.44-.41-2.32c0-.81.13-1.55.39-2.2.26-.65.62-1.21,1.09-1.67.46-.46,1.02-.81,1.68-1.06s1.37-.37,2.16-.37c.45,0,.89.03,1.32.1.43.06.92.22,1.47.47l-.44,1.46c-.67-.38-1.39-.57-2.16-.57-1.06,0-1.92.33-2.57.99-.65.66-.98,1.59-.98,2.78,0,.74.1,1.36.3,1.85.2.5.47.89.81,1.19s.71.51,1.13.64c.42.13.85.2,1.29.2Z"/>
    <path class="cls-1" d="M491.85,67.24c-.34,0-.62-.11-.86-.34s-.36-.51-.36-.84.12-.62.36-.85c.24-.23.53-.35.86-.35s.6.12.85.35c.25.23.37.52.37.85s-.12.61-.37.84-.53.34-.85.34ZM490.9,80.11v-10.24h1.92v10.24h-1.92Z"/>
    <path class="cls-1" d="M505.34,74.88c0,.86-.13,1.62-.39,2.3-.26.68-.62,1.25-1.08,1.71s-.99.82-1.6,1.06c-.61.24-1.27.36-1.98.36s-1.37-.11-1.97-.34-1.13-.56-1.57-1c-.44-.44-.79-.99-1.05-1.63s-.38-1.39-.38-2.23.13-1.62.39-2.29c.26-.67.62-1.23,1.08-1.69s.99-.81,1.6-1.05c.61-.24,1.27-.36,1.98-.36s1.37.11,1.97.33,1.13.54,1.57.98c.44.44.79.98,1.05,1.62s.38,1.39.38,2.23ZM503.34,74.99c0-.68-.09-1.26-.26-1.74s-.4-.87-.69-1.18c-.28-.3-.61-.53-.97-.67-.36-.14-.73-.21-1.11-.21s-.75.06-1.11.17c-.36.12-.68.32-.96.61-.28.29-.5.68-.66,1.16-.17.49-.25,1.1-.25,1.84,0,.68.09,1.27.26,1.75.18.49.4.88.69,1.19.28.3.61.53.97.68s.73.22,1.11.22.75-.06,1.11-.19c.36-.12.68-.33.96-.63s.5-.69.66-1.18.25-1.1.25-1.84Z"/>
    <path class="cls-1" d="M514.54,69.87h1.92v10.24h-1.5l-.26-1.29h-.09c-.38.42-.85.77-1.41,1.06-.56.28-1.21.42-1.95.42-1.06,0-1.92-.3-2.58-.9-.66-.6-.99-1.52-.99-2.73v-6.8h1.92v6.56c0,.44.05.81.16,1.11.11.3.25.55.44.73.18.18.39.31.64.39s.52.12.81.12c.58,0,1.1-.12,1.57-.37.46-.25.91-.59,1.33-1.02v-7.52Z"/>
    <path class="cls-1" d="M525.17,71.79c-.48-.23-.92-.39-1.31-.48-.39-.09-.78-.13-1.18-.13-.7,0-1.21.13-1.55.38-.34.25-.5.59-.5,1.01,0,.3.12.57.35.8.23.23.72.45,1.46.67l.65.2c.97.29,1.71.66,2.21,1.12.5.46.75,1.08.75,1.86,0,.93-.34,1.68-1.04,2.24-.69.57-1.65.85-2.89.85-.65,0-1.28-.06-1.88-.17-.6-.12-1.12-.28-1.56-.48l.46-1.5c.42.2.88.37,1.37.49.49.12,1,.19,1.5.19.65,0,1.17-.12,1.56-.35.38-.23.58-.62.58-1.15,0-.46-.17-.8-.5-.99-.33-.2-.81-.39-1.44-.58l-.68-.22c-.94-.3-1.65-.69-2.1-1.14-.46-.46-.69-1.05-.69-1.78,0-.44.1-.84.28-1.2s.45-.67.77-.92.71-.44,1.17-.58c.45-.14.94-.21,1.48-.21s1.04.05,1.58.14c.54.09,1.06.25,1.56.47l-.44,1.46Z"/>
    <path class="cls-1" d="M533.39,66.39h4.31c.71,0,1.36.09,1.94.27.58.18,1.08.45,1.5.81.42.36.75.79.98,1.31.23.52.35,1.11.35,1.78,0,.73-.12,1.36-.37,1.88-.25.53-.6.97-1.05,1.32-.45.35-.98.61-1.59.78-.61.18-1.29.26-2.03.26h-2.05v5.32h-2.01v-13.73ZM535.39,73.16h1.24c.54,0,1.04-.04,1.5-.11s.86-.2,1.19-.39c.33-.19.58-.45.77-.8.19-.34.28-.77.28-1.3,0-.48-.09-.88-.27-1.21-.18-.33-.42-.59-.71-.8-.29-.2-.62-.35-1-.44s-.76-.13-1.15-.13h-1.85v5.16Z"/>
    <path class="cls-1" d="M553.24,75.21h-7.34v.09c0,1.13.31,2.01.93,2.61.62.61,1.46.92,2.52.92.55,0,1.04-.04,1.47-.13s.9-.23,1.41-.44l.39,1.42c-.42.19-.92.34-1.49.46s-1.19.17-1.84.17c-.74,0-1.44-.1-2.08-.3-.65-.2-1.22-.52-1.71-.95-.5-.43-.88-.98-1.17-1.64-.28-.67-.43-1.47-.43-2.4,0-.8.12-1.53.36-2.18.24-.65.58-1.21,1.01-1.67.44-.46.96-.81,1.58-1.07.62-.25,1.31-.38,2.08-.38.65,0,1.25.11,1.78.33.53.22.98.52,1.36.92s.67.86.87,1.42c.2.55.3,1.16.3,1.83v1ZM551.25,73.84c0-.38-.05-.73-.14-1.06-.09-.33-.24-.61-.44-.86-.2-.25-.45-.44-.75-.59-.3-.15-.68-.22-1.11-.22-.8,0-1.45.25-1.95.76-.5.51-.81,1.18-.93,2l5.32-.04Z"/>
    <path class="cls-1" d="M564.89,74.88c0,.86-.13,1.62-.39,2.3-.26.68-.62,1.25-1.08,1.71s-.99.82-1.6,1.06c-.61.24-1.27.36-1.98.36s-1.37-.11-1.97-.34-1.13-.56-1.57-1c-.44-.44-.79-.99-1.05-1.63s-.38-1.39-.38-2.23.13-1.62.39-2.29c.26-.67.62-1.23,1.08-1.69s.99-.81,1.6-1.05c.61-.24,1.27-.36,1.98-.36s1.37.11,1.97.33,1.13.54,1.57.98c.44.44.79.98,1.05,1.62s.38,1.39.38,2.23ZM562.89,74.99c0-.68-.09-1.26-.26-1.74s-.4-.87-.69-1.18c-.28-.3-.61-.53-.97-.67-.36-.14-.73-.21-1.11-.21s-.75.06-1.11.17c-.36.12-.68.32-.96.61-.28.29-.5.68-.66,1.16-.17.49-.25,1.1-.25,1.84,0,.68.09,1.27.26,1.75.18.49.4.88.69,1.19.28.3.61.53.97.68s.73.22,1.11.22.75-.06,1.11-.19c.36-.12.68-.33.96-.63s.5-.69.66-1.18.25-1.1.25-1.84Z"/>
    <path class="cls-1" d="M571.48,80.31c-.46,0-.91-.06-1.34-.2s-.8-.3-1.1-.52v5.53h-1.9v-15.41h1.59l.28,1.33c.39-.36.84-.68,1.33-.94.49-.26,1.07-.39,1.74-.39,1.37,0,2.44.44,3.22,1.31s1.18,2.12,1.18,3.75c0,.96-.14,1.79-.42,2.48-.28.7-.66,1.27-1.13,1.72-.47.45-1.01.78-1.61,1s-1.22.33-1.84.33ZM571.67,71.29c-.61,0-1.14.15-1.59.45-.45.3-.8.6-1.05.91v5.47c.33.25.69.43,1.07.54.38.12.76.18,1.13.18s.78-.07,1.18-.21c.39-.14.74-.37,1.05-.69s.55-.73.74-1.24c.19-.51.28-1.13.28-1.87,0-1.09-.23-1.95-.69-2.58-.46-.63-1.17-.95-2.12-.95Z"/>
    <path class="cls-1" d="M578.89,80.11v-15.47h1.87v15.47h-1.87Z"/>
    <path class="cls-1" d="M592.53,75.21h-7.34v.09c0,1.13.31,2.01.93,2.61.62.61,1.46.92,2.52.92.55,0,1.04-.04,1.47-.13s.9-.23,1.41-.44l.39,1.42c-.42.19-.92.34-1.49.46s-1.19.17-1.84.17c-.74,0-1.44-.1-2.08-.3-.65-.2-1.22-.52-1.71-.95-.5-.43-.88-.98-1.17-1.64-.28-.67-.43-1.47-.43-2.4,0-.8.12-1.53.36-2.18.24-.65.58-1.21,1.01-1.67.44-.46.96-.81,1.58-1.07.62-.25,1.31-.38,2.08-.38.65,0,1.25.11,1.78.33.53.22.98.52,1.36.92s.67.86.87,1.42c.2.55.3,1.16.3,1.83v1ZM590.54,73.84c0-.38-.05-.73-.14-1.06-.09-.33-.24-.61-.44-.86-.2-.25-.45-.44-.75-.59-.3-.15-.68-.22-1.11-.22-.8,0-1.45.25-1.95.76-.5.51-.81,1.18-.93,2l5.32-.04Z"/>
  </g>
</svg>