<?xml version="1.0" encoding="UTF-8"?>
<svg id="Layer_1" data-name="Layer 1" xmlns="http://www.w3.org/2000/svg" viewBox="0 0 395.35 115.92">
  <defs>
    <style>
      .cls-1 {
        fill: #231f20;
        fill-rule: evenodd;
      }
    </style>
  </defs>
  <path class="cls-1" d="M324.72,46.26c0-.32-.66-.18-.7-.42-.51-2.19-.23-2.28-.56-2.65-.24-.29-.75-.24-.88-.52-.33-.47-.47-2.2-.75-2.61-.28-.42-.51-1.07-.74-1.44-.84-1.13-.79-1.13-1.31-1.64-.24-.28-.19-.7-.37-.94-.33-.42-.9-.55-1.17-.98-1.01-1.44-1.01-1.07-2.34-2.33-1.12-1.12-2.7-1.5-3.87-2.47-.22-.24-.22-.61-.51-.75q-1.3-.47-2-.74c-1.12-.39-2.28-.52-3.4-.66-1.41-.13-2.66.05-4.02,0-2.42,0-3.44-.36-5.82-.13h-.05c-1.07.09-2.32.42-3.4.56-1.12.18-1.97.56-3.04.42-.55-.09-.88-.7-1.35-.7-4.29,0-16.04-.18-20.32-.14-1.91.05-3.78-.18-5.64-.09-.33,0-.71,0-1.03.09v2.89c.28.15.51.29.7.51.37.51.42,1.26.79,1.78.88,1.21,1.07,2.47,1.44,2.8.38.37.42,1.12.84,1.44.79.6,1.3.92,2.19,1.26.47.14,1.27.05,1.73,0,.6-.14,1.12-.23,1.63-.33,2.51-.28,5.92.06,8.53.06,1.77-.06,3.59-.29,5.65-.33.18-.04.37.1.51.2.14.17.28.41.33.64.14,1.77,2.1,1.53,2.38,3.22.05.38.47.51.52.79.08.33.42,1.92.42,2.11,0,.37.42,1.3.37,1.63-.13.6.05,1.86.33,2.46.24.48-.04,1.26-.14,1.68-.27,1.17-.83,1.59-1.11,2.85-.18.6-.47,1.12-.79,1.58-1.08,1.45-2.19,2.8-3.5,3.97-1.03.84-2.28,1.49-3.45,2-.6.24-1.26.14-1.77.32-.65.24-1.17.7-1.73.84-1.68.33-3.36.33-4.99.74-.65.14-1.35.37-1.77.84-1.44,1.59-1.81,1.77-2.09,2.56-.29.75-.29,1.5-.1,2.19.15.75.05.75.52,2.24.24.6.89,1.44,2,2.8.14.14.41.04.51.23.56,1.03.56.88,1.02,1.31.24.18.62.04.84.23.37.28.51.75.83,1.03,2.71,2.47,3.13,2.94,3.55,3.21.75.52.79.56,2.75,1.08.8.18,1.54-.09,2.24.14,4.8,1.45,5.45,2.05,6.01,2.15,1.62.37,3.31.14,4.89.32.56.05,1.12.33,1.68.38.43,0,.74.05,1.02.09.84.09,1.27.18,2.52,0,.66-.09,1.03-.75,1.54-.93,1.87-.56,3.5-.28,5.27-.98,1.4-.51,1.17-.88,2.42-1.77.93-.65,1.13-.65,2.42-1.17.93-.42,2.66-3.13,3.55-3.46.46-.18.97-1.21,1.4-1.02.28.18.51,1.49.51,1.82.04,1.26-.24,3.97-.24,4.8,0,1.45.1,2.38-.14,3.22-.09.33-.32.1-1.45.88-.23.19-.18.66,0,.85,1.04,1.16,2.29,2.1,3.46,3.03.24.14.56.14.74.28.71.69.65,1.82,1.5,2.27.18.11,2.33.85,3.21.66.74-.19.28-1.35.33-1.54.28-.8.04-1.77.08-3.13.1-1.4.1-2.98.15-3.96.09-1.26.05-2.56-.05-3.78,0-.24.05-1.63.05-1.81-.1-1.54-.19-2.89.05-4.38.09-.46-.24-1.12-.2-1.82.05-.55.33-2.1.48-2.61.46-1.63-.1-2.43-.19-3.36-.05-.83.23-1.63.23-2.42.05-1.27.56-2.06.37-3.27-.09-.99-.09-3.22-.09-4.15,0-1.68.28-3.45.28-5.03s.36-2.1.36-3.64v-.09c0-.33-.04-.74-.08-1.26M315.49,50.47c0,.32-.32.7-.37,1.11-.14,1.45.23,1.82.13,2.57,0,.33-.13.74-.32,1.07-.28.57-.79.98-1.03,1.59-.41,1.02-.18.69-.84,4.01-.19,1.07-.94,2.01-1.58,2.9-.42.46-.98,1.95-1.45,2.42-2.38,2.66-2.05,3.18-3.59,4.43-.28.24-.74.29-1.07.56-.7.52-1.36,1.31-2.15,1.82-1.58,1.02-2.39,1.58-3.17,1.95-1.68.79-2.05,1.45-3.83,1.87-.04,0-.13,0-.19.05-1.82.32-3.68.28-5.59.38-1.12.04-2.57.27-3.69.14-.23-.05-.42-.33-.7-.37-1.35-.33-3.97-.14-5.32-.52-.33-.04-.56-.41-.98-.51-2.57-.66-.99-.94-2.1-1.03-.47-.04-1.03-.23-1.35-.6-.19-.23-.19-.61,0-.88.42-.66.46-.8,3.03-1.73.78-.28,1.68.05,2.47-.04.61-.05,1.22-.14,1.81-.37.43-.15.8-.61,1.27-.8.78-.33,1.72-.42,2.6-.74.61-.24,1.21-.42,1.73-.89.51-.42.74-1.03,1.39-1.77.48-.56.42-.6,1.12-1.17,1.54-1.16,1.36-.56,2.51-1.95.71-.84.6-2.1.8-3.17.09-.51-.09-1.08,0-1.63.05-.24.37-.47.37-.8.14-1.26,0-2.56-.09-3.82-.05-.42-.28-.75-.28-1.17-.28-6.67.79-3.31.32-7.41-.09-.66-.65-3.08-.74-3.74-.14-.88-.28-2.84.14-3.67.23-.47.88-.57,1.44-.75t.09-.05c.99-.32,2,.56,3.03.23.56-.18,1.07-.65,1.69-.79,1.3-.32-.2-.51,4.3-.22.92.04.83.42,1.81.51,1.4.09,2.84-.09,4.3.09.46.04.88.23,1.44.41.56.19,1.53-.04,2.15.19,1.53.6.09,1.82.51,2.19.47.42.66,1.17.66,1.82.18,3.17-.05-.05-.7,8.3"/>
  <path class="cls-1" d="M262.61,66.15c.09-1.26-.28-2.24-.52-3.45-.04-.51-.14-1.08-.18-1.55-.24-1.62-.24-3.31-.09-4.99.09-.79.51-1.44.55-2.19.2-2.8.29-5.54.1-8.3-.05-.47-.05-.42-.42-2.47-.05-.28-.37-.38-.61-.56-.05-.05-.1-.09-.1-.15-.74-1.86-.46-1.91-.61-2.46-.28-.84-.93-1.45-1.3-2.19-.19-.47-.19-1.02-.42-1.4-.89-1.26-.89-1.21-1.68-2.38-.32-.46-.88-.7-1.2-1.17-.34-.47-.19-1.06-.57-1.39-.38-.33-1.01-.1-1.4-.37-.6-.43-.84-1.17-1.35-1.68-.74-.65-1.31-1.72-2.23-1.82-5.65-.52-5,.46-13.35.18-.32,0-.22-.7-.51-.74-2.04-.14-4.1.28-6.15.19-.19,0-.1-.37-1.17-.37-1.54,0-3.07.46-4.66.6-1.78.09-3.55.23-5.27.14-.61,0-1.21-.37-1.82-.37-1.73-.1-3.36-.15-5.03,0-5.55.41-5.55.46-7.14.88-.28.05-.6.19-.69.42-.1.27-.05.55.09.75.23.41.74.69.98,1.16.52.93.66,2,1.17,2.89.14.19.46.09.61.19.37.34.69.65.98,1.03.92,1.16,1.25,1.78,2.04,2.29.7.42,1.59.18,2.28.37.33.09.56.41.85.41,1.62.19,1.62.29,1.86.29,1.17.13.1-.57,6.49-1.41,1.07-.09,1.03.19,1.63.23,2.05.23,2.42-.51,4.42-.33.43.05.84.09,1.12.38.61.6.89.46,1.31,1.02.42.57,1.54.46,2.19,1.77.27.66,2.01,1.41,1.63,2.94-.28,1.26,0,2.65-.18,3.87-.05.32-.42.47-.47.74-.09.47-.56,1.08-.66,1.44-.14.33-.05.33-.47,1.07-.37.79-.32.79-1.31,2.24-.46.66-1.21,1.08-1.63,1.41-.56.47-.32.65-1.26,1.87-.46.6-.51.56-1.59,1.58-1.3,1.26-2.7,2.29-4.06,3.35-.23.19-.6.04-.83.23-.56.38-1.12.98-1.73,1.36-.79.51-1.77.84-2.61,1.17-.37.13-.75.23-1.16.23-1.64,0-3.31-.19-4.94-.05-.28,0-.43.1-.7.89-.14.42-.1.51,2.14,3.97.28.46.84.6,1.17,1.03.24.27.18.74.46.98,1.16,1.12,2.52,2.05,3.83,2.94.51.37,1.12.5,1.64.84.18.09.13.36.23.42.32.28.75.32.93.55.19.19.04.47.19.56.51.56,1.08,1.08,1.69,1.49,2.42,1.82,3.54,2.66,4.43,3.41.1.09-.14.37,0,.51.18.24.56.24.7.47.28.41.98.83,1.96,1.95.24.28.28.7.52.93.33.37.74.6,1.03.97.18.28.08.61.23.8.38.46.94.75,1.27,1.17.37.46.51,1.03.89,1.4,1.07,1.08,2.79,2.11,3.31,2.52.42.37.42,1.07.79,1.44.56.56,1.22.93,1.77,1.36.42.24.89.56,1.35.61.43,0,.89-.05,1.16-.28.24-.24.2-.7.05-1.03-.33-.7-.51-.56-.98-.98-.6-.57-.42-.71-.88-1.64-.28-.41-.76-.69-.98-1.07-.34-.65-1.91-2.7-2.25-3.27-.23-.37-.6-.56-.88-.74-.28-.14-.61-.04-.84-.18-.52-.38-.24-.61-.84-1.31-.56-.6-.6-.51-.94-.88-.97-1.03-1.16-.79-1.48-1.07-.51-.47-.42-1.26-.89-1.68-.52-.42-.7-.09-1.68-.93-.65-.56-.33-.79-.89-1.63-.27-.38-.93-.19-1.2-.42-.94-.84-1.12-2.1-1.59-2.37-2.2-1.5-.89-1.41-1.35-2.33-.37-.7-.42-1.22.7-2,.66-.48,1.13-.48,1.77-.89.8-.51,1.86-.71,2.7-1.17,3.13-1.86,1.54-1.44,3.92-3.17.43-.28.66-.84,1.03-1.12.46-.33,1.03-.46,1.49-.84.42-.28,1.4-1.92,1.64-2.34.14-.28.14-.79.27-1.07.23-.33.75-.47.97-.79.75-1.27,1.5-2.43,1.96-3.74.19-.47-.04-1.02,0-1.5.1-.47.43-.84.48-1.21.1-.89,0-1.91-.05-2.75,0-.28-.24-.37-.24-.56-.05-1.77-.37-1.16-.14-3.45.05-.23-.28-.33-.33-.51-.18-.97.14-2.1-.23-2.99-.42-1.06-1.92-2.09-2.29-2.89-.24-.51-2.84-2.05-3.08-2.51-.18-.33-.74-.38-.98-.66-.23-.42-1.12-.65-.88-.98.28-.42,1.3-.14,1.77-.19,1.3-.14,4.84-.27,6.1-.14.46.1.75.61,1.12.61,4.56.14,5.92-1.82,10.12-.14,1.86.74.56,1.91.74,2.98.29,1.26.33,2.57.19,3.83-.37,2.8.14,1.86-.33,6.53-.08,1.07-.13,2.15,0,3.17.14.75-.13,2.24-.04,2.94.09,1.58-.23,3.17-.19,4.71.05,1.44.05,2.85.23,4.2.05.55.43.92.47,1.4.14.88-.51,1.54-.7,4.06-.56,6.8.05,9.37-.09,12.26-.05.75-.66,1.4-.56,2.15.05.51.56.79.7,1.21.18.42-.05.93.23,1.21.7.8,2.1,1.58,2.89,2.23.33.28.52.66.84.89.37.28,2.38.33,2.71.66.23.28.55.89.89.93.33.14.6.18.74.18.33,0,.41-.08.51-.27.14-.28.05-.61,0-.89-.04-.18-.32-.32-.32-.51-.13-.88.05-.84.14-2.42.05-.24-.19-.37-.19-.56-.04-.61-.04-1.21-.14-1.82-.18-2.37-.65-4.47-.33-6.94.05-.33.19-.89.33-1.4.18-.51.33-1.02.38-1.25.33-1.13.33-1.17.28-3.37,0-.23-.18-.27-.18-.42-.06-1.18.09-1.13.32-2.19.09-.51-.09-1.03,0-1.5.09-.47.38-.89.38-1.3"/>
  <path class="cls-1" d="M202.17,89.07c-.04-.24-.38-.28-.51-.46-.14-.33-.2-.7-.2-.98-.04-1.5.38-1.73.2-2.71-.05-.51-.71-.84-.75-1.3-.24-2.8.04-5.59-.19-8.35-.05-.37-.6-.6-.6-.98,0-.33.32-.47.36-.74.19-1.13.14-2.33.23-3.41.05-.47.33-.88.33-1.3.1-1.64.14-3.31,0-4.9,0-.33-.42-.56-.46-.84-.19-.7.09-1.49-.1-2.1-.04-.33-.6-.42-.56-.69.19-.8.61-.56,1.12-1.3.28-.38.1-.94,0-1.31-.1-.42-.51-.7-.56-1.07-.13-2.38-.28-2.98,0-5.88.14-1.49.66-2.84.8-4.24.1-.88.14-1.78,0-2.66-.05-.23-.37-.28-.37-.46-.28-2.61-.47-2.61-.56-5.18-.05-.37.6-.42.7-.7.37-.93,1.07-1.02.42-4.33-.37-1.73-2.69-2.34-3.76-3.5-1.03-1.03-.9-1.17-2.15-1.78-1.68-.84-1.21-.18-3.26.05-9.89,1.08-6.2.23-7.93.27-2.98.14-5.92-.18-8.86-.04-.38.04-.79.14-.98.38-.19.23-.14.6,0,.84.74,1.3,1.54,2,1.77,2.42.24.42.14.84.18,1.21.62.7,1.27,1.35,1.88,1.96.14.28.28.56.37.84.6.51,1.22.98,1.82,1.44,1.4.24,1.4.29,2.89.24.46,0,.99-.33,1.36-.7.23-.23.74,0,1.02,0,3.13-.09,5.88-.75,6.06-.18.42,1.3.09,1.96-.23,5.97-.05.7-.52.61-.42,1.08.1.18-.04,3.23,0,5.09.14,3.35.33,2.42.14,3.12-.09.32,0,.65-1.16,1.22-.65.32-2.01,1.68-4.1,1.49-2.43-.19-2.57.46-5.74.23-.61-.04-1.21.15-1.63-.23-.56-.61-.47-.69-1.12-1.16-1.13-.14-2.19-.19-3.26-.28-.28-.14-.52-.28-.71-.37-.19-.37-.38-.7-.46-1.07q.19-.8.19-5.14c-.14-.23-.24-.46-.33-.65-.14-.88-.18-1.77-.24-2.65-.31-.94-.6-1.73-.88-2.57v-.94c-.19-.37-.28-.64-.43-.92v-1.86c-.18-.24-.51-.33-.65-.56-.75-1.22-1.64-3.07-2.38-4.34-.13-.23-.43-.19-.52-.37-.31-.56-.04-.74-1.9-3.03-.33-.46-.93-.51-1.4-.6q-1.68-.24-5.6-.19c-.56.04-1.06.33-1.63.33h-1.25c-2.61,0-5.37.04-7.88.09-2.01.05-3.92-.18-5.97-.23-.24,0-.42.09-.56.23-.37.37-1.26.56-1.68.79-.66.33-1.07.1-1.77.33-.47.1-.56.1-1.26,1.12-.38.6-.51,1.3-.61,1.95-.04.57.66.98,1.26,2.44.14.33.14.66.18.98.15.19.33.37.52.52.42,1.03.79,1.96,1.21,2.89q.32.37,1.21.89c.13.42.32.78.42,1.16.41.33.74.7,1.07,1.03.09.29.18.47.23.7.37.42.7.79,1.03,1.12.18.37.28.8.41,1.12.33.37.65.7.94,1.07.42.29.89.57,1.25.84.19.42.29.8.43,1.22.6.37,1.21.79,1.77,1.16.47.1.98.24,1.5.33.47.28.98.52,1.45.74.33.32.65.65.93.93.56.28,1.12.51,1.59.74.79.19,1.53.38,2.33.56.27.05.55.1.84.19.47.27.89.56,1.35.84.74.1,1.54.19,2.28.28.14.23.23.37.38.57-.24.32-.47.65-.65.92q-.8.15-2.01.9c-.75.12-1.49.32-2.19.46-.19.05-.33.09-.52.09-1.07.51-2.19,1.03-3.26,1.45-.32.28-.65.51-.93.71q-1.31.37-4.81,1.86c-.18.24-.28.46-.42.6-.37.19-.75.28-1.17.37q-1.39.89-2.47,1.77c-.18.28-.32.56-.46.84-.28.14-.47.33-.7.52-.23.51-.37,1.07-.56,1.58v.93c.28.51.51,1.03.75,1.5v3.21c.09.47.19.84.23,1.21.28.52.56,1.03.84,1.55.28.18.52.41.74.6.33.56.66,1.03.93,1.54.61.46,1.21.84,1.82,1.26.14.33.1.7.24.98.28.6.19.32,1.86,1.9.74.7,1.44,1.83,2.1,2.16.88.47,1.49.83,2.47.92,1.07.14,2.24.52,3.31.75.32.05.65.14,1.02.14.47.09.84.55,1.31.55,3.55.2,3.55-.14,7-.18.28,0,.56.28.65.51.52,1.07.7,2.19,1.17,3.22.24.56.7.98.89,1.48.36,1.07.41,2.15.79,3.12.05.19.98,2.06,1.26,2.8.24.51.04,1.17.28,1.64.23.56.84.88,1.16,1.35.19.24.09.61.24.85.14.28.47.37.56.6.19.41.09.88.28,1.21.04.18.23.18.37.18.24,0,.51,0,.61-.09.13-.19.05-.46,0-.7-.7-2.98-.61-3.03-1.49-5.04-.14-.27-.05-.27-.33-1.34-.14-.37-.61-.48-.75-.84-.18-.52-.09-.29-.23-.75,0-.14-.23-.14-.23-.23-.14-.84.04-.89-.46-2.01-.14-.28-.46-.37-.56-.6-.41-1.03-.51-2.15-.88-3.17-.1-.24-.38-.33-.38-.56-.08-.69-.27-.88.38-1.63.69-.79,1.06-.94,2.09-1.21.6-.19,1.26.14,1.78,0,.78-.24,1.49-.66,2.19-1.12.46-.28.65-.84,1.02-1.08.19-.14.42-.09.56-.19.38-.28.84-.51,1.03-.93.19-.52.14-1.12,0-1.59-.33-.93-.84-1.72-1.36-2.47-.51-.74-1.16-1.4-1.58-2.15-.24-.38-.19-.84-.43-1.11-.28-.37-.88-.42-1.16-.8-.24-.32.04-.79-.09-1.12-.14-.28-.18-.28-1.4-.61-.38-.09-.8-.09-1.17,0-.6.14-1.3.19-1.77.56-.79.66-1.26,1.59-1.77,2.43-.19.27-.09.7-.28.93-.14.18-.52.14-.66.32-.24.29-.24.7-.47.89-.74.61-1.53,1.21-2.41,1.49-1.31.42-2.75.42-4.11.51-.89.09-1.77.19-2.66.23-.7,0-1.36.05-2.05-.04-.85-.05-1.64-.56-2.47-.61-.79-.05-1.59.19-2.33.05-2.47-.47-2.99-2.29-3.08-2.57-.19-.93-.05-.97.37-3.17.14-.18.32-.33.41-.47.57-.14,1.18-.14,1.64-.37.8-.41,1.41-1.02,2.2-1.45,2.75-1.49,2.75-1.39,4.8-2.23.19-.05.38-.1.52-.19,2.05-.79,2.14-.98,4.38-2.33.88-.18,1.77-.37,2.61-.51,2.85-1.17,4.05-1.87,5.87-2.61.37-.33.8-.65,1.17-.93.29-.57.56-1.03.79-1.55q.38-.38,1.21-.84c.38,0,.79-.09,1.07.05,1.17.46,1.96,1.4,4.25,2.38.84.33,1.96-.14,2.8,0,.41.1,1.77.33,2.14.33,3.59.18,4.01-.84,5.82-1.13,1.78-.32,2.11-.79,2.85-.05.7.65.23,1.87.1,2.75-.04.56-.46.93-.51,1.4-.15.75-.23,1.54-.19,2.24.14,4.06-.04,7.88.24,11.89,0,.37.28.74.32,1.12.18,1.4-1.53,2.15-1.35,3.54.05.29.24.47.38.57.19.14.42.09.56.18.7.46,1.44,1.17,2.05,1.72.43.43.98.8,1.5.98,1.26.41,4.1,1.87,5.41,2.8.52.37.47.42,1.21.7.37.15.84-.18,1.13-.33.28-.09.37-.22.22-1.12M168.04,44.13c-.41,3.5-.55,3.68-.79,4.76-.18.32-.32.69-.55,1.03-.05.47-.1.98-.19,1.54q-.51.56-.94,1.26c-.37.28-.75.61-1.16.94-.37,0-.88.32-1.26.09-.7-.38.18-.79-.28-2.33-.14-.56-.05-1.77-.23-2.33-.14-.37-.33-.79-.75-1.07-1.03-.65-1.12-.47-2.29-1.4-.1-.05-.05-.28-.19-.33-.84-.27-.88-.04-2.75-.32-.14-.06-.33-.1-.51-.19-.47-.23-.89-.56-1.4-.66-.42-.13-.93,0-1.4-.13-.42-.14-1.35-.09-1.82-.28-1.2-.47-1.2-.56-2.19-.94-.47-.18-1.21.33-1.72.09-1.31-.5-1.87-1.31-2.9-1.91-.18-.42-.42-.84-.7-1.31v-1.45c.29-.09.57-.28.85-.42.79-.14,1.63-.23,2.52-.33q.74-.37,3.26-1.12c1.87.05,3.68.05,5.51.05h1.16c.52-.1.98-.38,1.49-.38,1.3-.04,1.91.24,3.26.28.51,0,.98-.31,1.49-.37.46-.09,1.02-.14,1.49,0,.61.14,1.26.37,1.72.93.46.61,1.35,1.59,1.4,2.42.22,3.63,0,3.63-.15,3.87"/>
  <path class="cls-1" d="M123.13,69.91c.24.05.42.98.48,1.41.14,1.72.04,2.84-.05,4.48-.18,3.17-.33,3.17-.51,3.26,0,.47.28.32.36.84.29,1.22-.23,3.04-.08,4.2.08.61.6,1.17,1.67,2.57.7.93.93.65,2.61,1.9.61.47.79,1.35,1.4,1.78,1.49,1.02,1.49.98,2.1,1.35.23.14.56-.05.75-.14.24-.1.42-.24.46-.38.09-.37.04-.7-.05-.98-.14-.46-.56-.88-.61-1.3-.18-1.87.19-1.87.28-4.81.1-3.64-.55-7.84-.51-11.43.05-.51.43-.93.56-1.31.14-1.07.24-2.14.32-3.12-.14-1.17-.23-2.34-.32-3.5.28-.37.51-.65.74-.92.14-.42.33-.84.42-1.27q-.22-.37-.56-3.68c.18-.56.38-1.16.51-1.73q-.18-8.06-.04-9.65c-.19-.23-.29-.47-.42-.7-.05-.94-.05-1.87-.09-2.8-.46-1.96-.89-2.99-1.31-4.94-.23-.24-.41-.47-.6-.64-.18-1.08-.32-2.16-.51-3.23q-.33-.37-1.12-.69c-.19-.29-.28-.52-.42-.75-1.26-1.12-2.2-1.58-2.8-2.15-.52-.93-1.02-1.91-1.44-2.84-.27-.09-.6-.23-.84-.33-.05-.19-.1-.37-.18-.46-.42-.28-.75-.7-1.16-.76-.94-.18-1.36.57-3.41.24-1.54-.24-1.17-.7-8.35,0-1.48.14-4.19.1-5.59.19-3.97.23-4.01-.23-7.7-.37-.56,0-1.03.37-1.49.42-1.26.1-2.47.1-3.68,0-.28-.05-.42-.24-.6-.24-1.4-.04-1.35.33-3.23.42-6.1.14-5.26-.14-13.24-.14-.6,0-.51-.28-1.12-.56-.33-.14-.65-.1-.93,0-1.3.28-1.5.09-2.15.79-.28.32-.04.84,0,1.26.14.46,1.78,2.65,2.33,3.17.19.19.1.51.24.75.27.32.74.46.97.84.28.57.1.57,1.63,2.53.28.37.65.74,1.03.78,2.19.2,2.23.1,3.4-.18.6-.19,1.07-.7,1.68-.75,3.68-.42,3.08.7,5.13.62.89-.1,1.72.47,2.57.37.83-.09,1.59-.74,2.37-.8,2.75-.19,4.57.33,7.74.19.18-.05.04-.42,2.85-.6,2.62-.19,2.85-.48,8.77-.19,1.02.04,2.01.6,2.99.79.98.18,2.23-.42,3.21-.51,2.42-.24,1.96.32,2.2.32,1.95-.32,2.09-.6,3.68.09.66.33.56,1.35.75,2.01.18.69.46.33.46,1.02,0,.62-.14,1.17-.19,1.68q-.19.24-.14,2.1c.28.42.47.84.65,1.17q0,1.12-.14,1.72c-.15,3.55-.38,3.96-.42,6.67-.18,1.39-.37,1.35-.42,1.81-.04,2.29.24,1.69.14,5.23-.37.75-.88,1.06-1.39,1.16-1.26.28-2.46.47-3.73.42-2.1,0-3.17.05-5.22.09-.51,0-1.03.32-1.54.32-2.71.05-5.36.23-7.98-.14-.37-.05-.32-.8-.08-.98.46-.46,1.35-.23,1.68-.7,1.54-2.19,2.38-2.79,2.7-3.26.47-.65.47-.7.75-2.52.14-.84.19-1.68.04-2.43-.14-.79-.46-1.49-.74-2.19-.38-.93-.51-.84-1.5-2.15-.28-.37-1.26-1.44-1.49-1.77-.18-.27-.7-.18-.79-.42-.19-.38-.57-.88-.71-1.16-.23-.33-2.89-1.4-3.17-1.45-2-.42-1.12.09-4.33.42-1.16.1-2.61.42-5.32.33-.52,0-.93-.37-1.35-.41-1.59-.15-3.17-.19-4.71-.19-.51,0-.32.32-.75.32-.94-.05-2.05-.05-2.94-.1-.84-.04-1.68-.14-2.42-.04-.29.04-.57.28-.65.51-.1.32-.1.7,0,.98.28.79.52.6,1.63,1.81.43.52.47,1.26.84,1.82.79,1.21.6,1.58,2.09,2.24,1.08.41.98.7,4.95.51.74-.05,1.58-.42,2.57-.42,1.44-.05,3.45.05,5.49.05.98.04.89-.23,1.68-.42.61-.14,2.05-.32,2.61-.18.84.28,1.63.56,2.34.93.41.23,1.63-.19,1.81.23.23.65,0,.7-.19,1.17-1.16,2.6-4.43,4.43-6.29,4.85-.28.05-.24.56-.42.6-.37.19-1.68.34-2.01.43-.23.04-.32.28-.51.37-2.19.98-3.17,1.53-4.94,1.59-1.17.05-2.38-.05-3.54.05-.24.05-.43.18-.56.32-.19.19-.37.46-.33.65.09.33.28.66.47.84.19.19.56.14.65.33.33.52.42.42,1.03,1.5.65,1.07.61,1.02,1.02,1.54.61.74.53.84,1.78,1.82,1.68,1.36,1.77.7,2.94,1.73.6.51.65.14,1.26.51.83.47,2.7.23,3.59.41,2.98.56,4.15-.32,5.74.47.46.24,1.95,2.89.6,5.5-.1.24-.42.33-.7.33-.93,0-1.49.18-2.38.28-.19,0-.38.14-.51.33-.38.46-.84.6-1.17,1.07-.19.33-1.91.33-3.08.75-.23.09-.28.51-.56.51-1.07.14-4.29.09-5.41,0-.6-.09-1.16-.37-1.67-.42-1.26-.14-1.36-.38-3.17.27-3.08,1.02-3.78-.69-7.13-.32-.52.05-1.22.1-1.36.51-.46,1.27-.46.94,1.36,2.98.18.2.09.53.23.75.51.66,1.16,1.12,1.63,1.82.37.51.47,1.16.79,1.63.23.32.47.6.75.74.42.18.93.28,1.35.23,2.79-.37,3.12,1.21,5.45.65.65-.14,1.35.05,1.95,0,.42,0,.84-.24,1.22-.28,3.5-.33,7.23-.05,9.98-.6.46-.1.66-.7,1.08-.89,1.49-.79,1.58-.55,3.82-1.44.42-.18.71-.55.93-.88.19-.24.19-.66.37-.79.47-.47,1.08-.71,1.44-1.12.47-.46.75-1.02.98-1.49.19-.37.24-.74.24-1.12.05-1.58.14-1.58-.24-3.68-.13-.51-.37-.93-.61-1.3-.41-.7-1.11-1.21-1.44-1.86-.13-.33-.04-1.35.14-1.58.51-.52,1.21-.94,1.86-1.04,1.03-.14,2.14.94,3.04.75,1.72-.33.6-.61,2.69-.8.8-.09,1.54.19,2.28.14.28-.05.42-.24.61-.24.97.05,2,.06,2.89.19.28.05.43.23.65-.1"/>
</svg>